<svg width="512" height="512" viewBox="0 0 512 512" fill="none" xmlns="http://www.w3.org/2000/svg">
<path d="M256 32C114.6 32 0 125.1 0 240C0 289.6 21.4 335 57 370.7C44.5 421.1 2.7 466 2.2 466.5C0 468.8 -0.6 472.2 0.7 475.2C2 478.2 4.8 480 8 480C74.3 480 124 448.2 148.6 428.6C181.3 440.9 217.6 448 256 448C397.4 448 512 354.9 512 240C512 125.1 397.4 32 256 32Z" fill="#3A1D1D"/>
<path d="M55.44 211.98C52.68 211.98 50.28 210.96 48.24 208.92C46.2 206.88 45.18 204.48 45.18 201.72V196.86C45.18 194.1 46.2 191.7 48.24 189.66C50.28 187.62 52.68 186.6 55.44 186.6H135.72C138.48 186.6 140.88 187.62 142.92 189.66C144.96 191.7 145.98 194.1 145.98 196.86V201.72C145.98 204.48 144.96 206.88 142.92 208.92C140.88 210.96 138.48 211.98 135.72 211.98H112.68C111.72 211.98 111.24 212.46 111.24 213.42V307.74C111.24 310.5 110.22 312.9 108.18 314.94C106.14 316.98 103.74 318 100.98 318H90.18C87.42 318 85.02 316.98 82.98 314.94C80.94 312.9 79.92 310.5 79.92 307.74V213.42C79.92 212.46 79.44 211.98 78.48 211.98H55.44ZM190.396 213.24L177.256 264.9C177.136 265.26 177.196 265.62 177.436 265.98C177.796 266.22 178.156 266.34 178.516 266.34H202.636C202.996 266.34 203.296 266.22 203.536 265.98C203.896 265.62 204.016 265.26 203.896 264.9L190.756 213.24C190.756 213.12 190.696 213.06 190.576 213.06C190.456 213.06 190.396 213.12 190.396 213.24ZM142.336 318C139.816 318 137.776 316.98 136.216 314.94C134.776 312.9 134.476 310.68 135.316 308.28L171.676 196.32C172.636 193.44 174.316 191.1 176.716 189.3C179.236 187.5 181.996 186.6 184.996 186.6H196.876C199.996 186.6 202.816 187.5 205.336 189.3C207.856 191.1 209.536 193.44 210.376 196.32L246.556 308.28C247.396 310.68 247.036 312.9 245.476 314.94C244.036 316.98 242.056 318 239.536 318H227.476C224.476 318 221.776 317.1 219.376 315.3C216.976 313.38 215.416 310.98 214.696 308.1L210.376 291C210.256 290.04 209.656 289.56 208.576 289.56H172.576C171.616 289.56 171.016 290.04 170.776 291L166.456 308.1C165.736 310.98 164.176 313.38 161.776 315.3C159.376 317.1 156.676 318 153.676 318H142.336ZM267.988 318C265.228 318 262.828 316.98 260.788 314.94C258.748 312.9 257.728 310.5 257.728 307.74V196.86C257.728 194.1 258.748 191.7 260.788 189.66C262.828 187.62 265.228 186.6 267.988 186.6H279.148C281.908 186.6 284.248 187.62 286.168 189.66C288.208 191.7 289.228 194.1 289.228 196.86V291.18C289.228 292.14 289.768 292.62 290.848 292.62H334.588C337.348 292.62 339.748 293.64 341.788 295.68C343.828 297.72 344.848 300.12 344.848 302.88V307.74C344.848 310.5 343.828 312.9 341.788 314.94C339.748 316.98 337.348 318 334.588 318H267.988ZM372.627 318C369.867 318 367.467 316.98 365.427 314.94C363.387 312.9 362.367 310.5 362.367 307.74V196.86C362.367 194.1 363.387 191.7 365.427 189.66C367.467 187.62 369.867 186.6 372.627 186.6H382.887C385.647 186.6 387.987 187.62 389.907 189.66C391.947 191.7 392.967 194.1 392.967 196.86V242.76C392.967 242.88 393.027 242.94 393.147 242.94C393.387 242.94 393.507 242.88 393.507 242.76L424.107 195.24C427.707 189.48 432.927 186.6 439.767 186.6H454.887C457.047 186.6 458.607 187.56 459.567 189.48C460.527 191.4 460.407 193.26 459.207 195.06L422.667 248.34C422.067 249.18 422.067 250.02 422.667 250.86L461.187 309.54C462.387 311.34 462.447 313.2 461.367 315.12C460.407 317.04 458.847 318 456.687 318H441.567C434.727 318 429.567 315.12 426.087 309.36L393.507 256.44C393.507 256.32 393.387 256.26 393.147 256.26C393.027 256.26 392.967 256.32 392.967 256.44V307.74C392.967 310.5 391.947 312.9 389.907 314.94C387.987 316.98 385.647 318 382.887 318H372.627Z" fill="#F7E600"/>
</svg>
