<svg width="713" height="418" viewBox="0 0 713 418" fill="none" xmlns="http://www.w3.org/2000/svg">
<ellipse cx="356.345" cy="275" rx="352" ry="88" transform="rotate(3.18415 356.345 275)" fill="#F2D16B"/>
<g filter="url(#filter0_d)">
<path d="M526.938 64.5C529.632 59.8333 536.368 59.8333 539.062 64.5L661.172 276C663.866 280.667 660.498 286.5 655.11 286.5H410.89C405.502 286.5 402.134 280.667 404.828 276L526.938 64.5Z" fill="#D49466"/>
<path d="M536.897 65.75L659.007 277.25C660.739 280.25 658.574 284 655.11 284H410.89C407.426 284 405.261 280.25 406.993 277.25L529.103 65.75C530.835 62.75 535.165 62.75 536.897 65.75Z" stroke="black" stroke-width="5"/>
</g>
<g filter="url(#filter1_d)">
<mask id="path-4-inside-1" fill="white">
<path fill-rule="evenodd" clip-rule="evenodd" d="M370.837 275C376.225 275 379.593 269.167 376.899 264.5L231.407 12.5C228.712 7.83334 221.977 7.83333 219.282 12.5L73.7901 264.5C71.0958 269.167 74.4637 275 79.8523 275H370.837ZM268.41 89.4032C268.565 89.4389 268.691 89.2693 268.611 89.1316V89.1316C268.532 88.9932 268.32 89.0186 268.275 89.1718V89.1718C268.245 89.2727 268.307 89.3795 268.41 89.4032V89.4032ZM219.749 25.5C222.444 20.8333 229.179 20.8333 231.874 25.5L259.979 74.1791C260.52 75.1164 259.606 76.3571 258.524 76.373V76.373L234.022 76.7321C233.596 76.7383 233.18 76.7701 232.773 76.8257C232.109 76.9165 231.439 76.9794 230.769 77.0123C227.571 77.1691 224.437 78.8316 222.608 82L213.082 98.5C211.831 100.666 209.521 102 207.02 102H187.707C182.318 102 178.95 96.1667 181.644 91.5L219.749 25.5ZM275.947 101.836C275.898 101.753 275.772 101.768 275.745 101.861V101.861C275.725 101.93 275.777 102 275.849 102H275.853C275.937 102 275.988 101.909 275.947 101.836V101.836Z"/>
</mask>
<path fill-rule="evenodd" clip-rule="evenodd" d="M370.837 275C376.225 275 379.593 269.167 376.899 264.5L231.407 12.5C228.712 7.83334 221.977 7.83333 219.282 12.5L73.7901 264.5C71.0958 269.167 74.4637 275 79.8523 275H370.837ZM268.41 89.4032C268.565 89.4389 268.691 89.2693 268.611 89.1316V89.1316C268.532 88.9932 268.32 89.0186 268.275 89.1718V89.1718C268.245 89.2727 268.307 89.3795 268.41 89.4032V89.4032ZM219.749 25.5C222.444 20.8333 229.179 20.8333 231.874 25.5L259.979 74.1791C260.52 75.1164 259.606 76.3571 258.524 76.373V76.373L234.022 76.7321C233.596 76.7383 233.18 76.7701 232.773 76.8257C232.109 76.9165 231.439 76.9794 230.769 77.0123C227.571 77.1691 224.437 78.8316 222.608 82L213.082 98.5C211.831 100.666 209.521 102 207.02 102H187.707C182.318 102 178.95 96.1667 181.644 91.5L219.749 25.5ZM275.947 101.836C275.898 101.753 275.772 101.768 275.745 101.861V101.861C275.725 101.93 275.777 102 275.849 102H275.853C275.937 102 275.988 101.909 275.947 101.836V101.836Z" fill="#D49466"/>
<path d="M234.022 76.7321L234.095 81.7315L234.095 81.7315L234.022 76.7321ZM222.608 82L226.938 84.5L226.938 84.5L222.608 82ZM232.773 76.8257L233.45 81.7796L232.773 76.8257ZM230.769 77.0123L231.013 82.0063L230.769 77.0123ZM231.874 25.5L227.544 28L231.874 25.5ZM259.979 74.1791L264.309 71.6791L259.979 74.1791ZM73.7901 264.5L78.1202 267L73.7901 264.5ZM213.082 98.5L217.412 101L213.082 98.5ZM376.899 264.5L381.229 262L376.899 264.5ZM231.407 12.5L227.077 15L231.407 12.5ZM227.077 15L372.569 267L381.229 262L235.737 10L227.077 15ZM78.1202 267L223.612 15L214.952 10L69.46 262L78.1202 267ZM370.837 270H79.8523V280H370.837V270ZM264.309 71.6791L236.204 23L227.544 28L255.649 76.6791L264.309 71.6791ZM234.095 81.7315L258.598 81.3725L258.451 71.3735L233.948 71.7326L234.095 81.7315ZM233.45 81.7796C233.656 81.7515 233.871 81.7348 234.095 81.7315L233.948 71.7326C233.322 71.7418 232.704 71.7887 232.096 71.8717L233.45 81.7796ZM226.938 84.5C227.858 82.9062 229.39 82.0858 231.013 82.0063L230.524 72.0183C225.751 72.2523 221.016 74.7571 218.278 79.5L226.938 84.5ZM217.412 101L226.938 84.5L218.278 79.5L208.752 96L217.412 101ZM187.707 107H207.02V97H187.707V107ZM215.419 23L177.314 89L185.974 94L224.08 28L215.419 23ZM275.853 97H275.849V107H275.853V97ZM275.853 107C279.867 107 282.202 102.671 280.277 99.3362L271.616 104.336C269.775 101.146 272.006 97 275.853 97V107ZM280.551 103.24C279.351 107.424 273.756 108.042 271.616 104.336L280.277 99.3362C278.041 95.464 272.193 96.1122 270.939 100.481L280.551 103.24ZM270.939 100.481C270.025 103.668 272.372 107 275.849 107V97C279.182 97 281.426 100.192 280.551 103.24L270.939 100.481ZM232.096 71.8717C231.571 71.9435 231.045 71.9927 230.524 72.0183L231.013 82.0063C231.832 81.9661 232.646 81.8895 233.45 81.7796L232.096 71.8717ZM236.204 23C231.585 15 220.038 15 215.419 23L224.08 28C224.849 26.6667 226.774 26.6667 227.544 28L236.204 23ZM255.649 76.6791C254.707 75.0491 255.255 73.4923 255.744 72.7836C256.211 72.1052 257.119 71.393 258.451 71.3735L258.598 81.3725C261.012 81.3371 262.917 79.9966 263.977 78.4596C265.057 76.8922 265.791 74.2464 264.309 71.6791L255.649 76.6791ZM263.481 87.7519C262.633 90.6141 264.374 93.604 267.287 94.2754L269.533 84.5309C272.241 85.1551 273.857 87.9313 273.069 90.5917L263.481 87.7519ZM264.281 91.6315C262.159 87.9558 265.462 83.5926 269.533 84.5309L267.287 94.2754C271.668 95.2851 275.223 90.5827 272.942 86.6316L264.281 91.6315ZM272.942 86.6316C270.653 82.6676 264.766 83.4124 263.481 87.7519L273.069 90.5917C271.875 94.6249 266.41 95.3188 264.281 91.6315L272.942 86.6316ZM187.707 97C186.167 97 185.205 95.3333 185.974 94L177.314 89C172.695 97 178.469 107 187.707 107V97ZM69.46 262C64.8412 270 70.6146 280 79.8523 280V270C78.3127 270 77.3504 268.333 78.1202 267L69.46 262ZM208.752 96C208.394 96.6188 207.734 97 207.02 97V107C211.307 107 215.268 104.713 217.412 101L208.752 96ZM372.569 267C373.339 268.333 372.376 270 370.837 270V280C380.074 280 385.848 270 381.229 262L372.569 267ZM235.737 10C231.118 2.00001 219.571 1.99999 214.952 10L223.612 15C224.382 13.6667 226.307 13.6667 227.077 15L235.737 10Z" fill="black" mask="url(#path-4-inside-1)"/>
</g>
<g filter="url(#filter2_d)">
<path d="M349.938 10.5C352.632 5.83333 359.368 5.83333 362.062 10.5L530.937 303C533.631 307.667 530.264 313.5 524.875 313.5H187.125C181.736 313.5 178.369 307.667 181.063 303L349.938 10.5Z" fill="#D49466"/>
<path d="M359.897 11.75L528.772 304.25C530.504 307.25 528.339 311 524.875 311H187.125C183.661 311 181.496 307.25 183.228 304.25L352.103 11.75C353.835 8.75 358.165 8.75 359.897 11.75Z" stroke="black" stroke-width="5"/>
</g>
<g filter="url(#filter3_d)">
<path d="M146.338 403.8C127.271 403.8 114.071 399.667 106.738 391.4C101.671 385.533 99.1375 377.333 99.1375 366.8C99.1375 362.267 99.6042 357.4 100.538 352.2L108.738 306.2C114.738 272.467 136.404 255.6 173.738 255.6C189.204 255.6 200.938 258.933 208.938 265.6C216.938 272.133 220.938 281.133 220.938 292.6C220.938 297.933 220.138 303.267 218.538 308.6C217.071 313.8 215.604 317.667 214.138 320.2L211.938 324.2H176.538C180.938 319.133 183.138 311.933 183.138 302.6C183.138 297.667 181.871 293.8 179.338 291C176.804 288.067 173.071 286.6 168.138 286.6C154.671 286.6 146.671 294.067 144.138 309L137.138 349.4C136.471 352.867 136.138 356.267 136.138 359.6C136.138 368.4 141.404 372.8 151.938 372.8C164.604 372.8 172.204 365.667 174.738 351.4H210.738L209.738 357.2C204.404 388.267 183.271 403.8 146.338 403.8ZM319.63 370.2C319.63 373.667 321.363 375.4 324.83 375.4C328.43 375.4 331.43 374.733 333.83 373.4L332.83 396C326.43 401.2 319.23 403.8 311.23 403.8C296.563 403.8 288.43 398.467 286.83 387.8C280.163 398.467 270.363 403.8 257.43 403.8C235.563 403.8 224.63 394.4 224.63 375.6C224.63 372.4 224.963 368.867 225.63 365L229.83 341.6C231.963 329.6 236.83 320.067 244.43 313C252.163 305.8 262.163 302.2 274.43 302.2C286.83 302.2 295.23 305.067 299.63 310.8L300.63 304.8H331.03L319.83 367.8C319.696 368.6 319.63 369.4 319.63 370.2ZM260.43 360.6C260.163 361.8 260.03 363.467 260.03 365.6C260.03 367.733 261.03 369.867 263.03 372C265.03 374 268.363 375 273.03 375C277.83 375 281.963 373.133 285.43 369.4L291.43 335.8C289.963 332.467 286.496 330.8 281.03 330.8C270.763 330.8 264.763 335.733 263.03 345.6L260.43 360.6ZM388.342 375.4C391.409 375.4 394.142 374.733 396.542 373.4L395.542 396C389.276 401.2 382.142 403.8 374.142 403.8C362.009 403.8 354.142 401 350.542 395.4C348.142 391.667 346.942 387.733 346.942 383.6C346.942 379.333 347.209 375.6 347.742 372.4L359.742 304.8H393.742L382.542 367.8C382.409 368.6 382.342 369.333 382.342 370C382.342 373.6 384.342 375.4 388.342 375.4ZM363.742 272.2C363.742 263.667 365.609 257.467 369.342 253.6C373.209 249.6 379.142 247.6 387.142 247.6C398.342 247.6 403.942 252.533 403.942 262.4C403.942 270.8 402.009 276.933 398.142 280.8C394.409 284.667 388.476 286.6 380.342 286.6C369.276 286.6 363.742 281.8 363.742 272.2ZM505.838 325.2C505.838 329.733 505.038 334.133 503.438 338.4C501.971 342.667 500.504 345.8 499.038 347.8L496.838 350.6H466.638C469.971 347.533 471.638 343.733 471.638 339.2C471.638 336.8 470.838 334.867 469.238 333.4C467.771 331.8 465.704 331 463.038 331C458.504 331 454.571 333.267 451.238 337.8L440.038 401H406.038L423.038 304.8H454.638L452.238 318.2C459.838 307.4 469.038 302 479.838 302C488.504 302 494.971 304.067 499.238 308.2C503.638 312.333 505.838 318 505.838 325.2ZM571.372 302C585.772 302 596.639 305.133 603.972 311.4C609.705 316.333 612.572 323.2 612.572 332C612.572 334.933 612.239 338.133 611.572 341.6L607.372 365C604.839 379.133 598.905 389.133 589.572 395C580.372 400.867 568.039 403.8 552.572 403.8C537.105 403.8 525.772 400.867 518.572 395C513.239 390.6 510.572 384 510.572 375.2C510.572 372.133 510.905 368.733 511.572 365L515.772 341.6C520.439 315.2 538.972 302 571.372 302ZM576.772 345.6C577.039 344.267 577.172 342.6 577.172 340.6C577.172 338.467 576.305 336.133 574.572 333.6C572.839 331.067 569.772 329.8 565.372 329.8C561.105 329.8 557.505 331.267 554.572 334.2C551.639 337 549.772 340.8 548.972 345.6L546.372 360.6C546.105 361.933 545.972 363.667 545.972 365.8C545.972 367.8 546.839 370 548.572 372.4C550.305 374.8 553.305 376 557.572 376C561.972 376 565.639 374.533 568.572 371.6C571.505 368.533 573.372 364.867 574.172 360.6L576.772 345.6Z" fill="#F3F3F3"/>
<path d="M106.738 391.4L105.981 392.054L105.989 392.064L106.738 391.4ZM100.538 352.2L101.522 352.377L101.522 352.375L100.538 352.2ZM108.738 306.2L109.722 306.375L109.722 306.375L108.738 306.2ZM208.938 265.6L208.297 266.368L208.305 266.375L208.938 265.6ZM218.538 308.6L217.58 308.313L217.577 308.321L217.575 308.329L218.538 308.6ZM214.138 320.2L213.272 319.699L213.267 319.708L213.261 319.718L214.138 320.2ZM211.938 324.2V325.2H212.529L212.814 324.682L211.938 324.2ZM176.538 324.2L175.782 323.544L174.345 325.2H176.538V324.2ZM179.338 291L178.581 291.654L178.588 291.662L178.596 291.671L179.338 291ZM144.138 309L145.123 309.171L145.123 309.167L144.138 309ZM137.138 349.4L138.12 349.589L138.121 349.58L138.123 349.571L137.138 349.4ZM174.738 351.4V350.4H173.899L173.753 351.225L174.738 351.4ZM210.738 351.4L211.723 351.57L211.925 350.4H210.738V351.4ZM209.738 357.2L208.752 357.03L208.752 357.031L209.738 357.2ZM146.338 402.8C127.36 402.8 114.529 398.676 107.486 390.736L105.989 392.064C113.613 400.657 127.182 404.8 146.338 404.8V402.8ZM107.494 390.746C102.633 385.118 100.138 377.18 100.138 366.8H98.1375C98.1375 377.487 100.709 385.949 105.981 392.054L107.494 390.746ZM100.138 366.8C100.138 362.335 100.597 357.528 101.522 352.377L99.5532 352.023C98.6111 357.272 98.1375 362.199 98.1375 366.8H100.138ZM101.522 352.375L109.722 306.375L107.753 306.024L99.553 352.025L101.522 352.375ZM109.722 306.375C112.69 289.689 119.509 277.285 130.102 269.039C140.706 260.784 155.214 256.6 173.738 256.6V254.6C154.928 254.6 139.936 258.849 128.873 267.461C117.8 276.081 110.785 288.978 107.753 306.025L109.722 306.375ZM173.738 256.6C189.08 256.6 200.546 259.909 208.297 266.368L209.578 264.832C201.329 257.958 189.328 254.6 173.738 254.6V256.6ZM208.305 266.375C216.045 272.695 219.938 281.396 219.938 292.6H221.938C221.938 280.871 217.83 271.571 209.57 264.825L208.305 266.375ZM219.938 292.6C219.938 297.832 219.153 303.068 217.58 308.313L219.495 308.887C221.122 303.465 221.938 298.035 221.938 292.6H219.938ZM217.575 308.329C216.115 313.504 214.676 317.275 213.272 319.699L215.003 320.701C216.533 318.059 218.026 314.096 219.5 308.871L217.575 308.329ZM213.261 319.718L211.061 323.718L212.814 324.682L215.014 320.682L213.261 319.718ZM211.938 323.2H176.538V325.2H211.938V323.2ZM177.293 324.856C181.903 319.547 184.138 312.08 184.138 302.6H182.138C182.138 311.786 179.972 318.72 175.782 323.544L177.293 324.856ZM184.138 302.6C184.138 297.497 182.824 293.364 180.079 290.329L178.596 291.671C180.917 294.236 182.138 297.837 182.138 302.6H184.138ZM180.094 290.346C177.322 287.136 173.276 285.6 168.138 285.6V287.6C172.865 287.6 176.287 288.997 178.581 291.654L180.094 290.346ZM168.138 285.6C161.212 285.6 155.581 287.525 151.355 291.469C147.143 295.4 144.441 301.231 143.152 308.833L145.123 309.167C146.367 301.835 148.932 296.467 152.72 292.931C156.494 289.408 161.596 287.6 168.138 287.6V285.6ZM143.152 308.829L136.152 349.229L138.123 349.571L145.123 309.171L143.152 308.829ZM136.155 349.211C135.478 352.736 135.138 356.2 135.138 359.6H137.138C137.138 356.334 137.464 352.997 138.12 349.589L136.155 349.211ZM135.138 359.6C135.138 364.206 136.524 367.826 139.446 370.267C142.334 372.68 146.556 373.8 151.938 373.8V371.8C146.786 371.8 143.108 370.72 140.729 368.733C138.384 366.774 137.138 363.794 137.138 359.6H135.138ZM151.938 373.8C158.467 373.8 163.798 371.956 167.822 368.179C171.83 364.417 174.432 358.839 175.722 351.575L173.753 351.225C172.51 358.227 170.045 363.35 166.453 366.721C162.877 370.078 158.074 371.8 151.938 371.8V373.8ZM174.738 352.4H210.738V350.4H174.738V352.4ZM209.752 351.23L208.752 357.03L210.723 357.37L211.723 351.57L209.752 351.23ZM208.752 357.031C206.12 372.364 199.613 383.761 189.295 391.344C178.958 398.943 164.676 402.8 146.338 402.8V404.8C164.933 404.8 179.684 400.891 190.48 392.956C201.296 385.006 208.022 373.103 210.723 357.369L208.752 357.031ZM333.83 373.4L334.829 373.444L334.908 371.657L333.344 372.526L333.83 373.4ZM332.83 396L333.46 396.776L333.809 396.493L333.829 396.044L332.83 396ZM286.83 387.8L287.819 387.652L287.417 384.974L285.982 387.27L286.83 387.8ZM225.63 365L224.645 364.823L224.644 364.83L225.63 365ZM229.83 341.6L230.814 341.777L230.814 341.775L229.83 341.6ZM244.43 313L245.111 313.732L245.111 313.732L244.43 313ZM299.63 310.8L298.836 311.409L300.238 313.235L300.616 310.964L299.63 310.8ZM300.63 304.8V303.8H299.783L299.643 304.636L300.63 304.8ZM331.03 304.8L332.014 304.975L332.223 303.8H331.03V304.8ZM319.83 367.8L318.845 367.625L318.843 367.636L319.83 367.8ZM260.43 360.6L261.406 360.817L261.411 360.794L261.415 360.771L260.43 360.6ZM263.03 372L262.3 372.684L262.311 372.696L262.323 372.707L263.03 372ZM285.43 369.4L286.162 370.08L286.362 369.865L286.414 369.576L285.43 369.4ZM291.43 335.8L292.414 335.976L292.468 335.676L292.345 335.397L291.43 335.8ZM263.03 345.6L262.045 345.427L262.044 345.429L263.03 345.6ZM318.63 370.2C318.63 372.087 319.102 373.687 320.223 374.807C321.343 375.927 322.942 376.4 324.83 376.4V374.4C323.251 374.4 322.25 374.006 321.637 373.393C321.024 372.78 320.63 371.779 320.63 370.2H318.63ZM324.83 376.4C328.548 376.4 331.728 375.712 334.315 374.274L333.344 372.526C331.132 373.755 328.311 374.4 324.83 374.4V376.4ZM332.831 373.356L331.831 395.956L333.829 396.044L334.829 373.444L332.831 373.356ZM332.199 395.224C325.971 400.284 318.992 402.8 311.23 402.8V404.8C319.467 404.8 326.888 402.116 333.46 396.776L332.199 395.224ZM311.23 402.8C303.999 402.8 298.519 401.482 294.678 398.964C290.877 396.471 288.582 392.738 287.819 387.652L285.841 387.948C286.678 393.529 289.249 397.795 293.581 400.636C297.874 403.451 303.794 404.8 311.23 404.8V402.8ZM285.982 387.27C279.504 397.634 270.03 402.8 257.43 402.8V404.8C270.696 404.8 280.822 399.299 287.678 388.33L285.982 387.27ZM257.43 402.8C246.617 402.8 238.693 400.473 233.482 395.992C228.299 391.536 225.63 384.803 225.63 375.6H223.63C223.63 385.197 226.427 392.564 232.178 397.508C237.899 402.427 246.376 404.8 257.43 404.8V402.8ZM225.63 375.6C225.63 372.468 225.956 368.993 226.615 365.17L224.644 364.83C223.97 368.741 223.63 372.332 223.63 375.6H225.63ZM226.614 365.177L230.814 341.777L228.845 341.423L224.645 364.823L226.614 365.177ZM230.814 341.775C232.916 329.95 237.696 320.626 245.111 313.732L243.749 312.268C235.963 319.507 231.01 329.25 228.845 341.425L230.814 341.775ZM245.111 313.732C252.63 306.732 262.372 303.2 274.43 303.2V301.2C261.954 301.2 251.696 304.868 243.748 312.268L245.111 313.732ZM274.43 303.2C286.736 303.2 294.727 306.054 298.836 311.409L300.423 310.191C295.732 304.079 286.924 301.2 274.43 301.2V303.2ZM300.616 310.964L301.616 304.964L299.643 304.636L298.643 310.636L300.616 310.964ZM300.63 305.8H331.03V303.8H300.63V305.8ZM330.045 304.625L318.845 367.625L320.814 367.975L332.014 304.975L330.045 304.625ZM318.843 367.636C318.701 368.489 318.63 369.344 318.63 370.2H320.63C320.63 369.456 320.692 368.711 320.816 367.964L318.843 367.636ZM259.454 360.383C259.164 361.688 259.03 363.439 259.03 365.6H261.03C261.03 363.495 261.162 361.912 261.406 360.817L259.454 360.383ZM259.03 365.6C259.03 368.069 260.192 370.435 262.3 372.684L263.759 371.316C261.868 369.298 261.03 367.398 261.03 365.6H259.03ZM262.323 372.707C264.601 374.985 268.262 376 273.03 376V374C268.465 374 265.459 373.015 263.737 371.293L262.323 372.707ZM273.03 376C278.126 376 282.52 374.004 286.162 370.08L284.697 368.72C281.406 372.263 277.533 374 273.03 374V376ZM286.414 369.576L292.414 335.976L290.445 335.624L284.445 369.224L286.414 369.576ZM292.345 335.397C290.644 331.531 286.666 329.8 281.03 329.8V331.8C286.327 331.8 289.282 333.402 290.514 336.203L292.345 335.397ZM281.03 329.8C275.74 329.8 271.424 331.072 268.195 333.728C264.962 336.385 262.941 340.328 262.045 345.427L264.015 345.773C264.852 341.005 266.697 337.548 269.465 335.272C272.235 332.994 276.053 331.8 281.03 331.8V329.8ZM262.044 345.429L259.444 360.429L261.415 360.771L264.015 345.771L262.044 345.429ZM396.542 373.4L397.541 373.444L397.62 371.657L396.057 372.526L396.542 373.4ZM395.542 396L396.181 396.77L396.522 396.487L396.541 396.044L395.542 396ZM350.542 395.4L351.383 394.859L351.383 394.859L350.542 395.4ZM347.742 372.4L346.758 372.225L346.756 372.236L347.742 372.4ZM359.742 304.8V303.8H358.904L358.758 304.625L359.742 304.8ZM393.742 304.8L394.727 304.975L394.936 303.8H393.742V304.8ZM382.542 367.8L381.558 367.625L381.556 367.636L382.542 367.8ZM369.342 253.6L368.623 252.905L368.623 252.905L369.342 253.6ZM398.142 280.8L397.435 280.093L397.429 280.099L397.423 280.105L398.142 280.8ZM388.342 376.4C391.559 376.4 394.463 375.699 397.028 374.274L396.057 372.526C393.822 373.767 391.259 374.4 388.342 374.4V376.4ZM395.543 373.356L394.543 395.956L396.541 396.044L397.541 373.444L395.543 373.356ZM394.904 395.23C388.813 400.284 381.904 402.8 374.142 402.8V404.8C382.38 404.8 389.738 402.116 396.181 396.77L394.904 395.23ZM374.142 402.8C362.076 402.8 354.689 400.001 351.383 394.859L349.701 395.941C353.595 401.999 361.942 404.8 374.142 404.8V402.8ZM351.383 394.859C349.079 391.275 347.942 387.527 347.942 383.6H345.942C345.942 387.939 347.205 392.059 349.701 395.941L351.383 394.859ZM347.942 383.6C347.942 379.372 348.207 375.696 348.729 372.564L346.756 372.236C346.211 375.504 345.942 379.294 345.942 383.6H347.942ZM348.727 372.575L360.727 304.975L358.758 304.625L346.758 372.225L348.727 372.575ZM359.742 305.8H393.742V303.8H359.742V305.8ZM392.758 304.625L381.558 367.625L383.527 367.975L394.727 304.975L392.758 304.625ZM381.556 367.636C381.415 368.479 381.342 369.268 381.342 370H383.342C383.342 369.399 383.402 368.721 383.529 367.964L381.556 367.636ZM381.342 370C381.342 371.983 381.898 373.645 383.173 374.793C384.429 375.923 386.213 376.4 388.342 376.4V374.4C386.472 374.4 385.256 373.977 384.511 373.307C383.787 372.655 383.342 371.617 383.342 370H381.342ZM364.742 272.2C364.742 263.78 366.589 257.891 370.062 254.295L368.623 252.905C364.629 257.042 362.742 263.554 362.742 272.2H364.742ZM370.061 254.295C373.67 250.562 379.293 248.6 387.142 248.6V246.6C378.991 246.6 372.748 248.638 368.623 252.905L370.061 254.295ZM387.142 248.6C392.617 248.6 396.536 249.809 399.081 252.05C401.602 254.271 402.942 257.656 402.942 262.4H404.942C404.942 257.277 403.483 253.262 400.403 250.55C397.348 247.858 392.867 246.6 387.142 246.6V248.6ZM402.942 262.4C402.942 270.674 401.035 276.493 397.435 280.093L398.849 281.507C402.983 277.373 404.942 270.926 404.942 262.4H402.942ZM397.423 280.105C393.956 283.696 388.342 285.6 380.342 285.6V287.6C388.609 287.6 394.862 285.637 398.862 281.495L397.423 280.105ZM380.342 285.6C374.931 285.6 371.059 284.423 368.547 282.245C366.063 280.089 364.742 276.806 364.742 272.2H362.742C362.742 277.194 364.188 281.111 367.237 283.755C370.259 286.377 374.687 287.6 380.342 287.6V285.6ZM503.438 338.4L502.501 338.049L502.496 338.062L502.492 338.075L503.438 338.4ZM499.038 347.8L499.824 348.418L499.834 348.405L499.844 348.391L499.038 347.8ZM496.838 350.6V351.6H497.324L497.624 351.218L496.838 350.6ZM466.638 350.6L465.96 349.864L464.074 351.6H466.638V350.6ZM469.238 333.4L468.5 334.076L468.53 334.108L468.562 334.137L469.238 333.4ZM451.238 337.8L450.432 337.208L450.294 337.396L450.253 337.626L451.238 337.8ZM440.038 401V402H440.876L441.022 401.174L440.038 401ZM406.038 401L405.053 400.826L404.845 402H406.038V401ZM423.038 304.8V303.8H422.199L422.053 304.626L423.038 304.8ZM454.638 304.8L455.622 304.976L455.833 303.8H454.638V304.8ZM452.238 318.2L451.253 318.024L453.055 318.775L452.238 318.2ZM499.238 308.2L498.542 308.918L498.547 308.924L498.553 308.929L499.238 308.2ZM504.838 325.2C504.838 329.613 504.059 333.894 502.501 338.049L504.374 338.751C506.016 334.373 506.838 329.854 506.838 325.2H504.838ZM502.492 338.075C501.036 342.311 499.608 345.331 498.231 347.209L499.844 348.391C501.4 346.269 502.906 343.023 504.383 338.725L502.492 338.075ZM498.251 347.182L496.051 349.982L497.624 351.218L499.824 348.418L498.251 347.182ZM496.838 349.6H466.638V351.6H496.838V349.6ZM467.315 351.336C470.854 348.08 472.638 344.013 472.638 339.2H470.638C470.638 343.454 469.088 346.987 465.96 349.864L467.315 351.336ZM472.638 339.2C472.638 336.553 471.743 334.34 469.913 332.663L468.562 334.137C469.932 335.393 470.638 337.047 470.638 339.2H472.638ZM469.975 332.724C468.276 330.872 465.915 330 463.038 330V332C465.493 332 467.265 332.728 468.5 334.076L469.975 332.724ZM463.038 330C458.109 330 453.903 332.487 450.432 337.208L452.043 338.392C455.239 334.046 458.899 332 463.038 332V330ZM450.253 337.626L439.053 400.826L441.022 401.174L452.222 337.974L450.253 337.626ZM440.038 400H406.038V402H440.038V400ZM407.022 401.174L424.022 304.974L422.053 304.626L405.053 400.826L407.022 401.174ZM423.038 305.8H454.638V303.8H423.038V305.8ZM453.653 304.624L451.253 318.024L453.222 318.376L455.622 304.976L453.653 304.624ZM453.055 318.775C460.515 308.175 469.437 303 479.838 303V301C468.638 301 459.16 306.625 451.42 317.624L453.055 318.775ZM479.838 303C488.363 303 494.532 305.034 498.542 308.918L499.933 307.482C495.409 303.099 488.645 301 479.838 301V303ZM498.553 308.929C502.713 312.837 504.838 318.218 504.838 325.2H506.838C506.838 317.782 504.562 311.83 499.922 307.471L498.553 308.929ZM603.972 311.4L604.624 310.642L604.622 310.64L603.972 311.4ZM611.572 341.6L610.59 341.411L610.588 341.423L611.572 341.6ZM607.372 365L606.388 364.823L606.388 364.824L607.372 365ZM589.572 395L589.04 394.153L589.034 394.157L589.572 395ZM518.572 395L517.935 395.771L517.94 395.775L518.572 395ZM511.572 365L510.588 364.823L510.587 364.824L511.572 365ZM515.772 341.6L516.756 341.777L516.757 341.774L515.772 341.6ZM576.772 345.6L575.791 345.404L575.789 345.417L575.787 345.429L576.772 345.6ZM554.572 334.2L555.262 334.923L555.271 334.915L555.279 334.907L554.572 334.2ZM548.972 345.6L549.957 345.771L549.958 345.764L548.972 345.6ZM546.372 360.6L547.352 360.796L547.355 360.783L547.357 360.771L546.372 360.6ZM548.572 372.4L549.383 371.815L549.383 371.815L548.572 372.4ZM568.572 371.6L569.279 372.307L569.287 372.299L569.295 372.291L568.572 371.6ZM574.172 360.6L575.155 360.784L575.157 360.771L574.172 360.6ZM571.372 303C585.647 303 596.241 306.109 603.322 312.16L604.622 310.64C597.036 304.158 585.896 301 571.372 301V303ZM603.32 312.158C608.795 316.869 611.572 323.439 611.572 332H613.572C613.572 322.961 610.615 315.797 604.624 310.642L603.32 312.158ZM611.572 332C611.572 334.859 611.247 337.995 610.59 341.411L612.554 341.789C613.23 338.272 613.572 335.008 613.572 332H611.572ZM610.588 341.423L606.388 364.823L608.356 365.177L612.556 341.777L610.588 341.423ZM606.388 364.824C603.888 378.768 598.068 388.479 589.04 394.153L590.104 395.847C599.743 389.788 605.789 379.498 608.356 365.176L606.388 364.824ZM589.034 394.157C580.049 399.887 567.924 402.8 552.572 402.8V404.8C568.153 404.8 580.695 401.847 590.11 395.843L589.034 394.157ZM552.572 402.8C537.195 402.8 526.14 399.877 519.204 394.225L517.94 395.775C525.404 401.857 537.016 404.8 552.572 404.8V402.8ZM519.208 394.229C514.166 390.068 511.572 383.79 511.572 375.2H509.572C509.572 384.21 512.312 391.132 517.935 395.771L519.208 394.229ZM511.572 375.2C511.572 372.204 511.898 368.864 512.556 365.176L510.587 364.824C509.913 368.603 509.572 372.063 509.572 375.2H511.572ZM512.556 365.177L516.756 341.777L514.788 341.423L510.588 364.823L512.556 365.177ZM516.757 341.774C519.053 328.783 524.737 319.136 533.752 312.715C542.791 306.277 555.295 303 571.372 303V301C555.049 301 542.086 304.323 532.592 311.085C523.074 317.864 517.157 328.017 514.787 341.426L516.757 341.774ZM577.752 345.796C578.037 344.376 578.172 342.638 578.172 340.6H576.172C576.172 342.562 576.041 344.158 575.791 345.404L577.752 345.796ZM578.172 340.6C578.172 338.195 577.197 335.665 575.397 333.035L573.747 334.165C575.414 336.601 576.172 338.739 576.172 340.6H578.172ZM575.397 333.035C573.405 330.124 569.948 328.8 565.372 328.8V330.8C569.595 330.8 572.272 332.01 573.747 334.165L575.397 333.035ZM565.372 328.8C560.848 328.8 556.992 330.366 553.865 333.493L555.279 334.907C558.019 332.167 561.362 330.8 565.372 330.8V328.8ZM553.881 333.477C550.762 336.454 548.814 340.466 547.985 345.436L549.958 345.764C550.73 341.134 552.515 337.546 555.262 334.923L553.881 333.477ZM547.987 345.429L545.387 360.429L547.357 360.771L549.957 345.771L547.987 345.429ZM545.391 360.404C545.107 361.827 544.972 363.633 544.972 365.8H546.972C546.972 363.7 547.104 362.039 547.352 360.796L545.391 360.404ZM544.972 365.8C544.972 368.089 545.961 370.493 547.761 372.985L549.383 371.815C547.716 369.507 546.972 367.511 546.972 365.8H544.972ZM547.761 372.985C549.756 375.747 553.134 377 557.572 377V375C553.476 375 550.854 373.853 549.383 371.815L547.761 372.985ZM557.572 377C562.219 377 566.146 375.44 569.279 372.307L567.865 370.893C565.131 373.626 561.725 375 557.572 375V377ZM569.295 372.291C572.365 369.081 574.32 365.237 575.155 360.784L573.189 360.416C572.424 364.496 570.645 367.986 567.849 370.909L569.295 372.291ZM575.157 360.771L577.757 345.771L575.787 345.429L573.187 360.429L575.157 360.771Z" fill="black"/>
</g>
<path d="M278.984 131.262L259.841 239.219L232.691 239.158L213.924 180.016L203.591 239.093L176.442 239.032L195.735 131.075L223.634 131.138L242.11 186.379L251.984 131.201L278.984 131.262ZM356.331 239.437L281.031 239.267L300.324 131.31L375.624 131.48L371.371 154.87L323.071 154.761L319.576 175.004L359.476 175.093L355.223 198.484L315.323 198.394L312.284 215.937L360.584 216.046L356.331 239.437ZM471.802 131.696L469.068 213.44L472.518 213.448L498.802 131.757L528.202 131.823L490.909 239.739L445.909 239.638L450.114 170.497L429.859 239.602L384.859 239.501L386.152 131.503L415.552 131.57L412.668 213.313L416.118 213.321L442.552 131.63L471.802 131.696Z" fill="#F2D16B"/>
<path d="M278.984 131.262L279.969 131.437L280.177 130.265L278.987 130.262L278.984 131.262ZM259.841 239.219L259.839 240.219L260.679 240.221L260.826 239.394L259.841 239.219ZM232.691 239.158L231.738 239.461L231.959 240.157L232.689 240.158L232.691 239.158ZM213.924 180.016L214.878 179.713L212.939 179.844L213.924 180.016ZM203.591 239.093L203.589 240.093L204.431 240.095L204.576 239.265L203.591 239.093ZM176.442 239.032L175.457 238.856L175.247 240.029L176.439 240.032L176.442 239.032ZM195.735 131.075L195.737 130.075L194.898 130.073L194.75 130.899L195.735 131.075ZM223.634 131.138L224.583 130.82L224.355 130.139L223.637 130.138L223.634 131.138ZM242.11 186.379L241.162 186.697L243.095 186.555L242.11 186.379ZM251.984 131.201L251.987 130.201L251.148 130.2L251 131.025L251.984 131.201ZM278 131.088L258.857 239.045L260.826 239.394L279.969 131.437L278 131.088ZM259.844 238.219L232.694 238.158L232.689 240.158L259.839 240.219L259.844 238.219ZM233.645 238.856L214.878 179.713L212.971 180.318L231.738 239.461L233.645 238.856ZM212.939 179.844L202.606 238.92L204.576 239.265L214.909 180.188L212.939 179.844ZM203.594 238.093L176.444 238.032L176.439 240.032L203.589 240.093L203.594 238.093ZM177.426 239.208L196.719 131.251L194.75 130.899L175.457 238.856L177.426 239.208ZM195.732 132.075L223.632 132.138L223.637 130.138L195.737 130.075L195.732 132.075ZM222.686 131.455L241.162 186.697L243.059 186.062L224.583 130.82L222.686 131.455ZM243.095 186.555L252.969 131.378L251 131.025L241.126 186.203L243.095 186.555ZM251.982 132.201L278.982 132.262L278.987 130.262L251.987 130.201L251.982 132.201ZM356.331 239.437L356.329 240.437L357.165 240.438L357.315 239.615L356.331 239.437ZM281.031 239.267L280.047 239.091L279.837 240.264L281.029 240.267L281.031 239.267ZM300.324 131.31L300.326 130.31L299.487 130.308L299.34 131.134L300.324 131.31ZM375.624 131.48L376.608 131.659L376.822 130.482L375.626 130.48L375.624 131.48ZM371.371 154.87L371.369 155.87L372.205 155.872L372.355 155.049L371.371 154.87ZM323.071 154.761L323.074 153.761L322.23 153.76L322.086 154.591L323.071 154.761ZM319.576 175.004L318.59 174.833L318.389 176.001L319.574 176.004L319.576 175.004ZM359.476 175.093L360.46 175.272L360.673 174.096L359.478 174.093L359.476 175.093ZM355.223 198.484L355.221 199.484L356.057 199.486L356.207 198.663L355.223 198.484ZM315.323 198.394L315.325 197.394L314.482 197.392L314.338 198.223L315.323 198.394ZM312.284 215.937L311.298 215.767L311.096 216.935L312.281 216.937L312.284 215.937ZM360.584 216.046L361.567 216.225L361.781 215.049L360.586 215.046L360.584 216.046ZM356.333 238.437L281.033 238.267L281.029 240.267L356.329 240.437L356.333 238.437ZM282.015 239.443L301.309 131.486L299.34 131.134L280.047 239.091L282.015 239.443ZM300.322 132.31L375.622 132.48L375.626 130.48L300.326 130.31L300.322 132.31ZM374.64 131.301L370.387 154.691L372.355 155.049L376.608 131.659L374.64 131.301ZM371.374 153.87L323.074 153.761L323.069 155.761L371.369 155.87L371.374 153.87ZM322.086 154.591L318.59 174.833L320.561 175.174L324.057 154.932L322.086 154.591ZM319.574 176.004L359.473 176.093L359.478 174.093L319.578 174.004L319.574 176.004ZM358.492 174.915L354.239 198.305L356.207 198.663L360.46 175.272L358.492 174.915ZM355.225 197.484L315.325 197.394L315.321 199.394L355.221 199.484L355.225 197.484ZM314.338 198.223L311.298 215.767L313.269 216.108L316.308 198.565L314.338 198.223ZM312.281 216.937L360.581 217.046L360.586 215.046L312.286 214.937L312.281 216.937ZM359.6 215.867L355.347 239.258L357.315 239.615L361.567 216.225L359.6 215.867ZM471.802 131.696L472.801 131.73L472.836 130.698L471.804 130.696L471.802 131.696ZM469.068 213.44L468.068 213.407L468.034 214.438L469.066 214.44L469.068 213.44ZM472.518 213.448L472.516 214.448L473.246 214.45L473.47 213.754L472.518 213.448ZM498.802 131.757L498.804 130.757L498.074 130.755L497.85 131.451L498.802 131.757ZM528.202 131.823L529.147 132.15L529.604 130.826L528.204 130.823L528.202 131.823ZM490.909 239.739L490.906 240.739L491.621 240.741L491.854 240.066L490.909 239.739ZM445.909 239.638L444.911 239.577L444.846 240.636L445.907 240.638L445.909 239.638ZM450.114 170.497L451.113 170.558L449.155 170.216L450.114 170.497ZM429.859 239.602L429.857 240.602L430.607 240.604L430.818 239.883L429.859 239.602ZM384.859 239.501L383.859 239.489L383.847 240.498L384.857 240.501L384.859 239.501ZM386.152 131.503L386.154 130.503L385.164 130.501L385.152 131.491L386.152 131.503ZM415.552 131.57L416.551 131.605L416.588 130.572L415.554 130.57L415.552 131.57ZM412.668 213.313L411.669 213.278L411.632 214.311L412.666 214.313L412.668 213.313ZM416.118 213.321L416.116 214.321L416.845 214.323L417.069 213.629L416.118 213.321ZM442.552 131.63L442.554 130.63L441.825 130.629L441.6 131.322L442.552 131.63ZM470.802 131.663L468.068 213.407L470.067 213.474L472.801 131.73L470.802 131.663ZM469.066 214.44L472.516 214.448L472.52 212.448L469.07 212.44L469.066 214.44ZM473.47 213.754L499.754 132.063L497.85 131.451L471.566 213.142L473.47 213.754ZM498.799 132.757L528.199 132.823L528.204 130.823L498.804 130.757L498.799 132.757ZM527.256 131.496L489.964 239.413L491.854 240.066L529.147 132.15L527.256 131.496ZM490.911 238.739L445.911 238.638L445.907 240.638L490.906 240.739L490.911 238.739ZM446.907 239.699L451.113 170.558L449.116 170.437L444.911 239.577L446.907 239.699ZM449.155 170.216L428.899 239.321L430.818 239.883L451.074 170.779L449.155 170.216ZM429.861 238.602L384.861 238.501L384.857 240.501L429.857 240.602L429.861 238.602ZM385.859 239.513L387.152 131.515L385.152 131.491L383.859 239.489L385.859 239.513ZM386.15 132.503L415.55 132.57L415.554 130.57L386.154 130.503L386.15 132.503ZM414.553 131.534L411.669 213.278L413.667 213.348L416.551 131.605L414.553 131.534ZM412.666 214.313L416.116 214.321L416.12 212.321L412.67 212.313L412.666 214.313ZM417.069 213.629L443.503 131.938L441.6 131.322L415.167 213.013L417.069 213.629ZM442.55 132.63L471.8 132.696L471.804 130.696L442.554 130.63L442.55 132.63Z" fill="black"/>
<defs>
<filter id="filter0_d" x="399.88" y="61" width="266.24" height="233.5" filterUnits="userSpaceOnUse" color-interpolation-filters="sRGB">
<feFlood flood-opacity="0" result="BackgroundImageFix"/>
<feColorMatrix in="SourceAlpha" type="matrix" values="0 0 0 0 0 0 0 0 0 0 0 0 0 0 0 0 0 0 127 0"/>
<feOffset dy="4"/>
<feGaussianBlur stdDeviation="2"/>
<feColorMatrix type="matrix" values="0 0 0 0 0 0 0 0 0 0 0 0 0 0 0 0 0 0 0.25 0"/>
<feBlend mode="normal" in2="BackgroundImageFix" result="effect1_dropShadow"/>
<feBlend mode="normal" in="SourceGraphic" in2="effect1_dropShadow" result="shape"/>
</filter>
<filter id="filter1_d" x="68.8418" y="9" width="313.005" height="274" filterUnits="userSpaceOnUse" color-interpolation-filters="sRGB">
<feFlood flood-opacity="0" result="BackgroundImageFix"/>
<feColorMatrix in="SourceAlpha" type="matrix" values="0 0 0 0 0 0 0 0 0 0 0 0 0 0 0 0 0 0 127 0"/>
<feOffset dy="4"/>
<feGaussianBlur stdDeviation="2"/>
<feColorMatrix type="matrix" values="0 0 0 0 0 0 0 0 0 0 0 0 0 0 0 0 0 0 0.25 0"/>
<feBlend mode="normal" in2="BackgroundImageFix" result="effect1_dropShadow"/>
<feBlend mode="normal" in="SourceGraphic" in2="effect1_dropShadow" result="shape"/>
</filter>
<filter id="filter2_d" x="176.115" y="7" width="359.771" height="314.5" filterUnits="userSpaceOnUse" color-interpolation-filters="sRGB">
<feFlood flood-opacity="0" result="BackgroundImageFix"/>
<feColorMatrix in="SourceAlpha" type="matrix" values="0 0 0 0 0 0 0 0 0 0 0 0 0 0 0 0 0 0 127 0"/>
<feOffset dy="4"/>
<feGaussianBlur stdDeviation="2"/>
<feColorMatrix type="matrix" values="0 0 0 0 0 0 0 0 0 0 0 0 0 0 0 0 0 0 0.25 0"/>
<feBlend mode="normal" in2="BackgroundImageFix" result="effect1_dropShadow"/>
<feBlend mode="normal" in="SourceGraphic" in2="effect1_dropShadow" result="shape"/>
</filter>
<filter id="filter3_d" x="94.1375" y="246.6" width="523.434" height="166.2" filterUnits="userSpaceOnUse" color-interpolation-filters="sRGB">
<feFlood flood-opacity="0" result="BackgroundImageFix"/>
<feColorMatrix in="SourceAlpha" type="matrix" values="0 0 0 0 0 0 0 0 0 0 0 0 0 0 0 0 0 0 127 0"/>
<feOffset dy="4"/>
<feGaussianBlur stdDeviation="2"/>
<feColorMatrix type="matrix" values="0 0 0 0 0 0 0 0 0 0 0 0 0 0 0 0 0 0 0.25 0"/>
<feBlend mode="normal" in2="BackgroundImageFix" result="effect1_dropShadow"/>
<feBlend mode="normal" in="SourceGraphic" in2="effect1_dropShadow" result="shape"/>
</filter>
</defs>
</svg>
