<svg width="639" height="426" viewBox="0 0 639 426" fill="none" xmlns="http://www.w3.org/2000/svg">
<g filter="url(#filter0_d)">
<ellipse cx="317.5" cy="302.5" rx="313.5" ry="115.5" fill="#F2D16B"/>
<g filter="url(#filter1_d)">
<path d="M477.072 66C480.151 60.6667 487.849 60.6667 490.928 66L611.306 274.5C614.385 279.833 610.536 286.5 604.378 286.5H363.622C357.464 286.5 353.615 279.833 356.694 274.5L477.072 66Z" fill="#D49466"/>
<path d="M479.237 67.25C481.354 63.5833 486.646 63.5833 488.763 67.25L609.141 275.75C611.258 279.417 608.611 284 604.378 284H363.622C359.389 284 356.742 279.417 358.859 275.75L479.237 67.25Z" stroke="#A57553" stroke-width="5"/>
</g>
<g filter="url(#filter2_d)">
<mask id="path-4-inside-1" fill="white">
<path fill-rule="evenodd" clip-rule="evenodd" d="M320.105 275C326.263 275 330.112 268.333 327.033 263L183.273 14C180.194 8.66667 172.496 8.66667 169.416 14L25.6561 263C22.5769 268.333 26.4259 275 32.5843 275H320.105ZM219.41 89.4032C219.565 89.4389 219.691 89.2693 219.611 89.1316C219.532 88.9932 219.32 89.0186 219.275 89.1718C219.245 89.2727 219.307 89.3795 219.41 89.4032ZM169.883 27C172.963 21.6667 180.661 21.6667 183.74 27L210.979 74.1791C211.52 75.1164 210.606 76.3571 209.524 76.373L185.022 76.7321C184.646 76.7376 184.278 76.763 183.916 76.8071C183.155 76.9001 182.389 76.972 181.624 77.0203C178.477 77.2194 175.41 78.8793 173.608 82L164.371 98C162.941 100.475 160.3 102 157.442 102H140.439C134.28 102 130.431 95.3333 133.51 90L169.883 27ZM226.947 101.836C226.898 101.753 226.772 101.768 226.745 101.861C226.725 101.93 226.777 102 226.849 102H226.853C226.937 102 226.988 101.909 226.947 101.836Z"/>
</mask>
<path fill-rule="evenodd" clip-rule="evenodd" d="M320.105 275C326.263 275 330.112 268.333 327.033 263L183.273 14C180.194 8.66667 172.496 8.66667 169.416 14L25.6561 263C22.5769 268.333 26.4259 275 32.5843 275H320.105ZM219.41 89.4032C219.565 89.4389 219.691 89.2693 219.611 89.1316C219.532 88.9932 219.32 89.0186 219.275 89.1718C219.245 89.2727 219.307 89.3795 219.41 89.4032ZM169.883 27C172.963 21.6667 180.661 21.6667 183.74 27L210.979 74.1791C211.52 75.1164 210.606 76.3571 209.524 76.373L185.022 76.7321C184.646 76.7376 184.278 76.763 183.916 76.8071C183.155 76.9001 182.389 76.972 181.624 77.0203C178.477 77.2194 175.41 78.8793 173.608 82L164.371 98C162.941 100.475 160.3 102 157.442 102H140.439C134.28 102 130.431 95.3333 133.51 90L169.883 27ZM226.947 101.836C226.898 101.753 226.772 101.768 226.745 101.861C226.725 101.93 226.777 102 226.849 102H226.853C226.937 102 226.988 101.909 226.947 101.836Z" fill="#D49466"/>
<path d="M185.022 76.7321L185.095 81.7315L185.022 76.7321ZM173.608 82L177.938 84.5V84.5L173.608 82ZM183.916 76.8071L184.523 81.7702L183.916 76.8071ZM181.624 77.0203L181.94 82.0104L181.624 77.0203ZM183.74 27L179.41 29.5L183.74 27ZM169.883 27L165.553 24.5L169.883 27ZM210.979 74.1791L215.309 71.6791L210.979 74.1791ZM133.51 90L129.18 87.5L133.51 90ZM25.6561 263L21.326 260.5L25.6561 263ZM164.371 98L160.04 95.5L164.371 98ZM327.033 263L331.363 260.5L327.033 263ZM178.943 16.5L322.703 265.5L331.363 260.5L187.603 11.5L178.943 16.5ZM29.9862 265.5L173.746 16.5L165.086 11.5L21.326 260.5L29.9862 265.5ZM320.105 270H32.5843V280H320.105V270ZM215.309 71.6791L188.07 24.5L179.41 29.5L206.649 76.6791L215.309 71.6791ZM185.095 81.7315L209.598 81.3725L209.451 71.3735L184.948 71.7326L185.095 81.7315ZM184.523 81.7702C184.707 81.7477 184.897 81.7344 185.095 81.7315L184.948 71.7326C184.395 71.7407 183.849 71.7782 183.31 71.844L184.523 81.7702ZM177.938 84.5C178.846 82.9287 180.345 82.1113 181.94 82.0104L181.309 72.0303C176.609 72.3276 171.974 74.8299 169.278 79.5L177.938 84.5ZM168.701 100.5L177.938 84.5L169.278 79.5L160.04 95.5L168.701 100.5ZM140.439 107H157.442V97H140.439V107ZM165.553 24.5L129.18 87.5L137.84 92.5L174.214 29.5L165.553 24.5ZM226.853 97H226.849V107H226.853V97ZM226.853 107C230.867 107 233.202 102.671 231.277 99.3362L222.616 104.336C220.775 101.146 223.006 97 226.853 97V107ZM231.551 103.24C230.351 107.424 224.756 108.042 222.616 104.336L231.277 99.3362C229.041 95.464 223.193 96.1122 221.939 100.481L231.551 103.24ZM221.939 100.481C221.025 103.668 223.372 107 226.849 107V97C230.182 97 232.426 100.192 231.551 103.24L221.939 100.481ZM183.31 71.844C182.642 71.9257 181.973 71.9883 181.309 72.0303L181.94 82.0104C182.806 81.9556 183.669 81.8746 184.523 81.7702L183.31 71.844ZM188.07 24.5C183.066 15.8333 170.557 15.8334 165.553 24.5L174.214 29.5C175.368 27.5 178.255 27.5 179.41 29.5L188.07 24.5ZM206.649 76.6791C205.707 75.0491 206.255 73.4923 206.744 72.7836C207.211 72.1052 208.119 71.393 209.451 71.3735L209.598 81.3725C212.012 81.3371 213.917 79.9966 214.977 78.4595C216.057 76.8922 216.791 74.2464 215.309 71.6791L206.649 76.6791ZM214.481 87.7519C213.633 90.6141 215.374 93.604 218.287 94.2754L220.533 84.5309C223.241 85.1551 224.857 87.9313 224.069 90.5917L214.481 87.7519ZM215.281 91.6315C213.159 87.9558 216.462 83.5926 220.533 84.5309L218.287 94.2754C222.668 95.2851 226.223 90.5827 223.942 86.6316L215.281 91.6315ZM223.942 86.6316C221.653 82.6676 215.766 83.4124 214.481 87.7519L224.069 90.5917C222.875 94.6249 217.41 95.3188 215.281 91.6315L223.942 86.6316ZM140.439 97C138.129 97 136.686 94.5 137.84 92.5L129.18 87.5C124.177 96.1667 130.431 107 140.439 107V97ZM21.326 260.5C16.3223 269.167 22.5769 280 32.5843 280V270C30.2749 270 28.8315 267.5 29.9862 265.5L21.326 260.5ZM160.04 95.5C159.505 96.4282 158.514 97 157.442 97V107C162.087 107 166.378 104.522 168.701 100.5L160.04 95.5ZM322.703 265.5C323.858 267.5 322.414 270 320.105 270V280C330.112 280 336.367 269.167 331.363 260.5L322.703 265.5ZM187.603 11.5C182.599 2.83333 170.09 2.83333 165.086 11.5L173.746 16.5C174.901 14.5 177.788 14.5 178.943 16.5L187.603 11.5Z" fill="#A57553" mask="url(#path-4-inside-1)"/>
</g>
<g filter="url(#filter3_d)">
<path d="M300.072 12C303.151 6.66667 310.849 6.66667 313.928 12L481.071 301.5C484.15 306.833 480.301 313.5 474.143 313.5H139.857C133.699 313.5 129.85 306.833 132.929 301.5L300.072 12Z" fill="#D49466"/>
<path d="M302.237 13.25C304.354 9.58333 309.646 9.58333 311.763 13.25L478.906 302.75C481.023 306.417 478.377 311 474.143 311H139.857C135.623 311 132.977 306.417 135.094 302.75L302.237 13.25Z" stroke="#A57553" stroke-width="5"/>
</g>
</g>
<defs>
<filter id="filter0_d" x="0" y="8" width="635" height="418" filterUnits="userSpaceOnUse" color-interpolation-filters="sRGB">
<feFlood flood-opacity="0" result="BackgroundImageFix"/>
<feColorMatrix in="SourceAlpha" type="matrix" values="0 0 0 0 0 0 0 0 0 0 0 0 0 0 0 0 0 0 127 0"/>
<feOffset dy="4"/>
<feGaussianBlur stdDeviation="2"/>
<feColorMatrix type="matrix" values="0 0 0 0 0 0 0 0 0 0 0 0 0 0 0 0 0 0 0.25 0"/>
<feBlend mode="normal" in2="BackgroundImageFix" result="effect1_dropShadow"/>
<feBlend mode="normal" in="SourceGraphic" in2="effect1_dropShadow" result="shape"/>
</filter>
<filter id="filter1_d" x="351.611" y="62" width="264.779" height="232.5" filterUnits="userSpaceOnUse" color-interpolation-filters="sRGB">
<feFlood flood-opacity="0" result="BackgroundImageFix"/>
<feColorMatrix in="SourceAlpha" type="matrix" values="0 0 0 0 0 0 0 0 0 0 0 0 0 0 0 0 0 0 127 0"/>
<feOffset dy="4"/>
<feGaussianBlur stdDeviation="2"/>
<feColorMatrix type="matrix" values="0 0 0 0 0 0 0 0 0 0 0 0 0 0 0 0 0 0 0.25 0"/>
<feBlend mode="normal" in2="BackgroundImageFix" result="effect1_dropShadow"/>
<feBlend mode="normal" in="SourceGraphic" in2="effect1_dropShadow" result="shape"/>
</filter>
<filter id="filter2_d" x="20.5724" y="10" width="311.544" height="273" filterUnits="userSpaceOnUse" color-interpolation-filters="sRGB">
<feFlood flood-opacity="0" result="BackgroundImageFix"/>
<feColorMatrix in="SourceAlpha" type="matrix" values="0 0 0 0 0 0 0 0 0 0 0 0 0 0 0 0 0 0 127 0"/>
<feOffset dy="4"/>
<feGaussianBlur stdDeviation="2"/>
<feColorMatrix type="matrix" values="0 0 0 0 0 0 0 0 0 0 0 0 0 0 0 0 0 0 0.25 0"/>
<feBlend mode="normal" in2="BackgroundImageFix" result="effect1_dropShadow"/>
<feBlend mode="normal" in="SourceGraphic" in2="effect1_dropShadow" result="shape"/>
</filter>
<filter id="filter3_d" x="127.845" y="8" width="358.31" height="313.5" filterUnits="userSpaceOnUse" color-interpolation-filters="sRGB">
<feFlood flood-opacity="0" result="BackgroundImageFix"/>
<feColorMatrix in="SourceAlpha" type="matrix" values="0 0 0 0 0 0 0 0 0 0 0 0 0 0 0 0 0 0 127 0"/>
<feOffset dy="4"/>
<feGaussianBlur stdDeviation="2"/>
<feColorMatrix type="matrix" values="0 0 0 0 0 0 0 0 0 0 0 0 0 0 0 0 0 0 0.25 0"/>
<feBlend mode="normal" in2="BackgroundImageFix" result="effect1_dropShadow"/>
<feBlend mode="normal" in="SourceGraphic" in2="effect1_dropShadow" result="shape"/>
</filter>
</defs>
</svg>
