<svg id="boat" width="132" height="39" viewBox="0 0 132 39" fill="none" xmlns="http://www.w3.org/2000/svg">
<g id="boat">
<g id="Vector">
<path d="M127.978 15.311C128.847 14.6157 130.122 15.1264 130.223 16.2349C130.598 20.3595 130.866 27.5337 130.147 35.9992C130.039 37.2757 128.962 38.2446 127.681 38.2446H12.4491C12.1105 38.2446 11.7712 38.1772 11.4652 38.0324C1.70873 33.4149 0.452838 18.8416 1.16617 10.1743C1.27771 8.81907 2.4921 7.87237 3.842 8.03657C41.7459 12.6471 113.804 21.8953 116.936 24.2446C120.936 27.2446 125.936 25.7446 127.436 24.2446C128.557 23.1233 128.02 19.8778 127.536 18.097C127.473 17.8622 127.436 17.621 127.436 17.3776V16.4386C127.436 15.9999 127.635 15.585 127.978 15.311Z" fill="#7D6034"/>
<path d="M127.436 24.2446L126.906 23.7142L126.906 23.7142L127.436 24.2446ZM116.936 24.2446L117.386 23.6446L117.386 23.6446L116.936 24.2446ZM11.4652 38.0324L11.1444 38.7103L11.4652 38.0324ZM127.536 18.097L128.26 17.9006L127.536 18.097ZM127.978 15.311L128.446 15.8967L127.978 15.311ZM3.842 8.03657L3.93256 7.29205L3.842 8.03657ZM1.16617 10.1743L0.418695 10.1128L1.16617 10.1743ZM130.223 16.2349L130.97 16.1669L130.223 16.2349ZM130.147 35.9992L130.895 36.0627L130.147 35.9992ZM129.4 35.9358C130.115 27.518 129.848 20.3879 129.476 16.3028L130.97 16.1669C131.349 20.331 131.617 27.5494 130.895 36.0627L129.4 35.9358ZM128.186 16.4386V17.3776H126.686V16.4386H128.186ZM128.26 17.9006C128.511 18.8241 128.779 20.1374 128.837 21.3833C128.866 22.0059 128.844 22.6394 128.728 23.2111C128.613 23.7745 128.392 24.3492 127.966 24.7749L126.906 23.7142C127.041 23.5793 127.173 23.3279 127.258 22.9118C127.341 22.5039 127.364 22.0045 127.339 21.453C127.287 20.3506 127.045 19.1507 126.813 18.2934L128.26 17.9006ZM127.966 24.7749C127.057 25.6837 125.248 26.48 123.196 26.6786C121.11 26.8805 118.663 26.4776 116.486 24.8446L117.386 23.6446C119.209 25.0115 121.262 25.3587 123.051 25.1856C124.874 25.0092 126.314 24.3054 126.906 23.7142L127.966 24.7749ZM116.486 24.8446C116.489 24.847 116.469 24.8323 116.411 24.8037C116.355 24.7766 116.279 24.7439 116.179 24.7062C115.978 24.6304 115.708 24.5442 115.364 24.4484C114.679 24.2571 113.745 24.039 112.579 23.7971C110.251 23.3136 107.044 22.7437 103.153 22.1095C95.3743 20.8416 84.8963 19.3223 73.3262 17.7315C50.1875 14.5502 22.7013 11.0861 3.75144 8.78108L3.93256 7.29205C22.8866 9.59757 50.3812 13.0628 73.5305 16.2455C85.1043 17.8368 95.597 19.3581 103.394 20.6291C107.292 21.2644 110.524 21.8384 112.884 22.3284C114.063 22.5732 115.035 22.7991 115.768 23.0037C116.134 23.1058 116.45 23.2054 116.708 23.3027C116.95 23.3938 117.199 23.5041 117.386 23.6446L116.486 24.8446ZM1.91364 10.2359C1.56161 14.5132 1.69859 20.2305 3.11316 25.425C4.53025 30.6288 7.1906 35.1796 11.786 37.3545L11.1444 38.7103C5.98335 36.2677 3.1375 31.2232 1.66586 25.8191C0.191698 20.4058 0.0573973 14.5027 0.418695 10.1128L1.91364 10.2359ZM127.681 38.9946H12.4491V37.4946H127.681V38.9946ZM0.344775 10.6784L1.19133 3.65482L2.68055 3.83432L1.834 10.8579L0.344775 10.6784ZM11.786 37.3545C11.9802 37.4464 12.2079 37.4946 12.4491 37.4946V38.9946C12.0131 38.9946 11.5623 38.9081 11.1444 38.7103L11.786 37.3545ZM128.186 17.3776C128.186 17.5455 128.211 17.7203 128.26 17.9006L126.813 18.2934C126.734 18.0041 126.686 17.6964 126.686 17.3776H128.186ZM128.446 15.8967C128.282 16.0284 128.186 16.2278 128.186 16.4386H126.686C126.686 15.7721 126.989 15.1417 127.509 14.7254L128.446 15.8967ZM3.75144 8.78108C2.80472 8.66592 1.98869 9.324 1.91364 10.2359L0.418695 10.1128C0.566731 8.31414 2.17947 7.07881 3.93256 7.29205L3.75144 8.78108ZM129.476 16.3028C129.433 15.8225 128.875 15.5539 128.446 15.8967L127.509 14.7254C128.819 13.6776 130.812 14.4303 130.97 16.1669L129.476 16.3028ZM130.895 36.0627C130.753 37.7358 129.343 38.9946 127.681 38.9946V37.4946C128.581 37.4946 129.325 36.8157 129.4 35.9358L130.895 36.0627ZM1.19347 4.1385C1.36067 2.96806 1.55922 1.55291 1.61634 1.0797C1.62356 1.0199 1.62735 0.984593 1.62872 0.968992C1.63027 0.951458 1.62731 0.976333 1.6277 1.01293C1.62781 1.02301 1.62823 1.05452 1.63332 1.09506C1.63578 1.11465 1.64152 1.15483 1.65546 1.20425C1.664 1.23454 1.69993 1.36338 1.80911 1.48996C1.86942 1.55221 2.03345 1.66674 2.13825 1.71103C2.2616 1.74109 2.50281 1.73933 2.61435 1.71138C2.84292 1.63503 2.95869 1.47437 2.98009 1.44533C3.04647 1.35527 3.07594 1.27026 3.07765 1.26569C3.0996 1.20716 3.10814 1.15784 3.10238 1.18495C3.10142 1.18946 3.09907 1.20113 3.09504 1.22292C3.08713 1.26559 3.07565 1.33138 3.06 1.42477C2.99741 1.79826 2.87731 2.55806 2.67722 3.85861L1.19466 3.63052C1.39458 2.33107 1.51614 1.56171 1.58063 1.17686C1.59675 1.08067 1.60988 1.00505 1.62011 0.949811C1.62514 0.922643 1.63023 0.896224 1.63519 0.872935C1.63533 0.872243 1.64826 0.805409 1.67313 0.739073C1.67558 0.732545 1.70569 0.646185 1.77262 0.55538C1.7943 0.525963 1.91032 0.365074 2.13913 0.288649C2.25078 0.260659 2.4921 0.258903 2.61556 0.288997C2.72046 0.333318 2.88459 0.447925 2.94499 0.510278C3.05436 0.637082 3.09045 0.766288 3.09914 0.797082C3.11322 0.847018 3.11908 0.887856 3.12164 0.908241C3.12693 0.950385 3.12748 0.984075 3.12761 0.996906C3.12812 1.04451 3.12392 1.0895 3.12294 1.10061C3.11926 1.1423 3.1129 1.1984 3.10553 1.25944C3.04597 1.75289 2.84452 3.18773 2.67839 4.35063L1.19347 4.1385ZM2.67722 3.85861C2.28027 6.43882 2.11707 8.28605 2.07271 9.29017C2.06163 9.54103 2.05825 9.733 2.05991 9.86714C2.06204 10.0399 2.07278 10.0396 2.05483 9.97379C2.05016 9.95667 2.04046 9.92394 2.02275 9.88354C2.00782 9.84948 1.97022 9.76995 1.89471 9.68723C1.81692 9.60201 1.64867 9.46185 1.38876 9.44703C1.129 9.43221 0.946049 9.55219 0.859256 9.62773C0.774925 9.70113 0.72852 9.77565 0.709813 9.8077C0.687629 9.8457 0.674261 9.87701 0.667687 9.89338C0.660479 9.91134 0.656041 9.92497 0.653874 9.93195C0.651561 9.93939 0.650376 9.94398 0.650154 9.94485C0.649829 9.94612 0.651276 9.94052 0.654105 9.92576C0.656821 9.91159 0.660197 9.89222 0.664106 9.86693C0.671966 9.81609 0.680919 9.74824 0.690531 9.66174L2.18136 9.82739C2.16025 10.0173 2.1355 10.1909 2.10337 10.3165C2.09484 10.3499 2.08106 10.399 2.0597 10.4522C2.05203 10.4713 1.99405 10.6286 1.84402 10.7592C1.7534 10.8381 1.56672 10.9596 1.30334 10.9446C1.0398 10.9296 0.868038 10.7874 0.786839 10.6985C0.652555 10.5514 0.613058 10.3882 0.607682 10.3685C0.566293 10.2167 0.561666 10.0188 0.560023 9.88566C0.557903 9.71394 0.562338 9.49186 0.574173 9.22397C0.621482 8.15309 0.79162 6.25032 1.19466 3.63052L2.67722 3.85861Z" fill="#BC8839"/>
</g>
<g id="Subtract">
<path fill-rule="evenodd" clip-rule="evenodd" d="M1.93592 10.7446C18.6565 14.4192 67.3849 23.161 128.534 28.731C134.506 28.731 72.9983 29.8914 1.93592 10.7446ZM126.544 36.7325C66.8389 31.7814 19.2615 24.0109 2.93591 20.7446C64.718 35.8993 119.103 36.7419 126.162 36.7446H126.23C127.038 36.7442 127.166 36.7325 126.544 36.7325ZM22.5866 36.7446C17.4557 35.541 12.2275 34.212 6.93591 32.7446C11.2827 33.7278 18.2132 35.1319 27.2363 36.7446H22.5866ZM39.5644 36.7446C28.6123 34.6886 16.9368 32.0726 4.93591 28.7446C12.6307 30.4851 28.4215 33.5447 49.5854 36.7446H39.5644ZM67.5391 36.7446C49.2082 34.6075 26.6942 30.96 2.93591 24.7446C14.4682 27.2054 43.7407 32.393 82.0297 36.7446H67.5391ZM1.93592 15.7446C18.6565 19.2151 67.3849 27.4712 128.534 32.7318C134.506 32.7318 72.9983 33.8277 1.93592 15.7446Z" fill="url(#paint0_linear)" fill-opacity="0.4"/>
<path d="M1.93592 10.7446L1.87088 10.986L1.98958 10.5004L1.93592 10.7446ZM128.534 28.731V28.981H128.523L128.512 28.98L128.534 28.731ZM2.93591 20.7446L2.87635 20.9874L2.98495 20.4994L2.93591 20.7446ZM126.544 36.7325V36.9825H126.534L126.523 36.9817L126.544 36.7325ZM126.162 36.7446V36.9946L126.162 36.9946L126.162 36.7446ZM126.23 36.7446L126.23 36.9946H126.23V36.7446ZM6.93591 32.7446L6.86911 32.9855L6.99107 32.5007L6.93591 32.7446ZM22.5866 36.7446V36.9946H22.5577L22.5295 36.988L22.5866 36.7446ZM27.2363 36.7446L27.2803 36.4985L27.2363 36.9946V36.7446ZM4.93591 28.7446L4.86911 28.9855L4.99107 28.5007L4.93591 28.7446ZM39.5644 36.7446V36.9946H39.5411L39.5183 36.9903L39.5644 36.7446ZM49.5854 36.7446L49.6228 36.4974L49.5854 36.9946V36.7446ZM2.93591 24.7446L2.87264 24.9864L2.98809 24.5001L2.93591 24.7446ZM67.5391 36.7446V36.9946H67.5246L67.5102 36.9929L67.5391 36.7446ZM82.0297 36.7446L82.0579 36.4962L82.0297 36.9946V36.7446ZM1.93592 15.7446L1.87427 15.9868L1.98673 15.4998L1.93592 15.7446ZM128.534 32.7318V32.9818H128.524L128.513 32.9808L128.534 32.7318ZM1.98958 10.5004C18.6992 14.1726 67.4173 22.9129 128.557 28.482L128.512 28.98C67.3526 23.4091 18.6138 14.6658 1.88226 10.9887L1.98958 10.5004ZM128.534 28.481C128.721 28.481 128.845 28.4821 128.905 28.4839C128.92 28.4843 128.935 28.4848 128.947 28.4857C128.948 28.4858 128.967 28.4869 128.988 28.4913C129.008 28.4966 129.11 28.557 129.166 28.6382C129.174 28.8127 129.034 28.966 129.001 28.9777C128.989 28.9806 128.972 28.9838 128.965 28.9847C128.961 28.9853 128.955 28.9859 128.951 28.9863C128.944 28.9869 128.937 28.9873 128.931 28.9876C128.918 28.9882 128.902 28.9888 128.884 28.9893C128.74 28.9932 128.347 28.9963 127.723 28.9935C126.471 28.9878 124.278 28.9583 121.258 28.863C115.217 28.6725 105.863 28.219 94.1006 27.1669C70.5775 25.0627 37.4199 20.5642 1.87088 10.986L2.00096 10.5032C37.5143 20.0718 70.6418 24.5665 94.1452 26.6689C105.897 27.72 115.241 28.173 121.274 28.3633C124.29 28.4584 126.478 28.4878 127.725 28.4935C128.35 28.4963 128.735 28.4932 128.871 28.4895C128.887 28.489 128.899 28.4886 128.905 28.4882C128.909 28.488 128.91 28.488 128.908 28.4881C128.908 28.4881 128.903 28.4886 128.901 28.4889C128.897 28.4895 128.881 28.4925 128.87 28.4952C128.837 28.5066 128.698 28.6597 128.706 28.8339C128.761 28.9149 128.863 28.9751 128.882 28.9801C128.89 28.9816 128.902 28.9835 128.905 28.9839C128.907 28.984 128.91 28.9843 128.91 28.9844C128.911 28.9844 128.91 28.9843 128.906 28.9842C128.902 28.984 128.898 28.9838 128.891 28.9836C128.839 28.9822 128.721 28.981 128.534 28.981V28.481ZM2.98495 20.4994C19.3005 23.7638 66.8683 31.533 126.565 36.4834L126.523 36.9817C66.8095 32.0298 19.2225 24.2581 2.88686 20.9897L2.98495 20.4994ZM126.162 36.9946C119.093 36.9919 64.6854 36.1488 2.87635 20.9874L2.99546 20.5018C64.7505 35.6499 119.114 36.4919 126.162 36.4946L126.162 36.9946ZM126.23 36.9946H126.162V36.4946H126.23V36.9946ZM126.544 36.4825C126.7 36.4825 126.81 36.4832 126.875 36.4844C126.905 36.4849 126.933 36.4856 126.951 36.487C126.951 36.487 126.971 36.4883 126.992 36.4934C126.998 36.4948 127.016 36.499 127.037 36.5081C127.047 36.5126 127.067 36.5223 127.089 36.5397C127.109 36.555 127.154 36.5942 127.175 36.6636C127.2 36.7466 127.179 36.8236 127.144 36.8755C127.116 36.9185 127.081 36.9414 127.066 36.9503C127.036 36.9689 127.009 36.9763 127.003 36.9779C126.985 36.983 126.971 36.9849 126.968 36.9853C126.962 36.9861 126.957 36.9866 126.954 36.9869C126.948 36.9874 126.941 36.9878 126.937 36.9881C126.873 36.9915 126.631 36.9944 126.23 36.9946L126.23 36.4946C126.637 36.4944 126.863 36.4913 126.91 36.4888C126.912 36.4887 126.911 36.4887 126.909 36.4889C126.908 36.489 126.905 36.4893 126.9 36.4899C126.899 36.4901 126.885 36.4918 126.868 36.4967C126.862 36.4982 126.835 36.5055 126.805 36.524C126.791 36.5329 126.756 36.5557 126.728 36.5987C126.693 36.6506 126.671 36.7276 126.697 36.8105C126.718 36.8798 126.763 36.9189 126.782 36.9343C126.805 36.9516 126.825 36.9612 126.835 36.9657C126.856 36.9748 126.873 36.9789 126.878 36.9801C126.891 36.9833 126.902 36.9845 126.904 36.9847C126.908 36.9852 126.91 36.9854 126.911 36.9854C126.912 36.9855 126.9 36.9849 126.866 36.9843C126.806 36.9832 126.699 36.9825 126.544 36.9825V36.4825ZM7.00272 32.5037C12.2909 33.9701 17.5159 35.2983 22.6437 36.5012L22.5295 36.988C17.3956 35.7836 12.1641 34.4538 6.86911 32.9855L7.00272 32.5037ZM27.1923 36.9907C18.1668 35.3776 11.2324 33.9727 6.88076 32.9884L6.99107 32.5007C11.3331 33.4828 18.2596 34.8863 27.2803 36.4985L27.1923 36.9907ZM22.5866 36.4946H27.2363V36.9946H22.5866V36.4946ZM5.00272 28.5037C16.996 31.8295 28.6645 34.4441 39.6105 36.4989L39.5183 36.9903C28.5601 34.9332 16.8777 32.3156 4.86911 28.9855L5.00272 28.5037ZM49.548 36.9918C28.3801 33.7912 12.583 30.7306 4.88076 28.9884L4.99107 28.5007C12.6784 30.2395 28.463 33.2981 49.6228 36.4974L49.548 36.9918ZM39.5644 36.4946H49.5854V36.9946H39.5644V36.4946ZM2.99919 24.5027C26.7437 30.7145 49.2458 34.3602 67.5681 36.4962L67.5102 36.9929C49.1705 34.8548 26.6447 31.2054 2.87264 24.9864L2.99919 24.5027ZM82.0014 36.993C43.706 32.6407 14.4253 27.4518 2.88374 24.9891L2.98809 24.5001C14.5111 26.9589 43.7754 32.1454 82.0579 36.4962L82.0014 36.993ZM67.5391 36.4946H82.0297V36.9946H67.5391V36.4946ZM1.98673 15.4998C18.6969 18.9681 67.4155 27.2229 128.556 32.4827L128.513 32.9808C67.3544 27.7195 18.6161 19.462 1.88511 15.9894L1.98673 15.4998ZM128.534 32.4818C128.721 32.4818 128.845 32.4828 128.905 32.4844C128.92 32.4848 128.934 32.4853 128.946 32.4862C128.947 32.4863 128.965 32.4873 128.985 32.4912C129.004 32.496 129.107 32.554 129.164 32.6339C129.174 32.8137 129.03 32.9684 128.997 32.9791C128.986 32.9817 128.97 32.9846 128.964 32.9854C128.96 32.9859 128.953 32.9865 128.95 32.9868C128.943 32.9873 128.936 32.9877 128.93 32.988C128.918 32.9886 128.902 32.9891 128.884 32.9896C128.74 32.9933 128.347 32.9962 127.723 32.9935C126.471 32.9882 124.279 32.9603 121.258 32.8703C115.217 32.6904 105.864 32.2621 94.1019 31.2685C70.5792 29.2813 37.4224 25.0327 1.87427 15.9868L1.99757 15.5023C37.5118 24.5395 70.64 28.7846 94.1439 30.7702C105.896 31.763 115.24 32.1909 121.273 32.3706C124.29 32.4604 126.478 32.4882 127.725 32.4935C128.349 32.4962 128.735 32.4932 128.871 32.4897C128.888 32.4893 128.899 32.4889 128.906 32.4886C128.91 32.4884 128.911 32.4883 128.91 32.4884C128.909 32.4884 128.905 32.4888 128.903 32.4891C128.899 32.4897 128.883 32.4924 128.873 32.4947C128.842 32.5052 128.698 32.6597 128.708 32.8392C128.765 32.9188 128.867 32.9766 128.885 32.9812C128.892 32.9826 128.904 32.9842 128.907 32.9845C128.908 32.9847 128.911 32.9849 128.911 32.985C128.912 32.985 128.91 32.9849 128.907 32.9847C128.903 32.9846 128.898 32.9844 128.892 32.9843C128.839 32.9828 128.721 32.9818 128.534 32.9818V32.4818Z" fill="#442D00"/>
</g>
</g>
<defs>
<linearGradient id="paint0_linear" x1="102.5" y1="34.5" x2="25.5" y2="24" gradientUnits="userSpaceOnUse">
<stop stop-color="#623500"/>
<stop offset="0.526042"/>
<stop offset="1" stop-color="#623500"/>
</linearGradient>
</defs>
</svg>
