<svg width="364" height="470" viewBox="0 0 364 470" fill="none" xmlns="http://www.w3.org/2000/svg" id="man_sit">
<g id="man_sitting">
<g id="line_1">
<path id="line_1_2" d="M82.0485 432.498L201.848 46.7124" stroke="black" stroke-width="0.2"/>
<g id="needle">
<path id="Vector 16" d="M80.2807 438.332L78.721 443.309M78.2956 444.666L78.721 443.309M78.721 443.309C77.9792 443.442 76.8812 442.897 78.423 439.653" stroke="#323232" stroke-width="0.3"/>
<path id="Vector 17" d="M78.7862 443.31C78.7862 443.31 80.1071 445.168 81.1344 440.634" stroke="#323232" stroke-width="0.3"/>
<ellipse id="Ellipse 2" rx="1.8236" ry="4.10309" transform="matrix(-0.963988 -0.265946 -0.265946 0.963988 81.2522 435.026)" fill="#323232"/>
</g>
</g>
<g id="man">
<path id="red_shit_3" d="M293.78 90.0216L297.049 91.3628L301.189 97.0272L292.552 106.263L289.85 97.8103L293.78 90.0216Z" fill="url(#sit_paint0_linear)" stroke="black"/>
<g id="right_leg">
<path d="M287.671 121.741C287.521 124.97 302.289 131.46 309.692 134.302L316.408 125.452C314.932 123.917 309.809 119.983 301.117 116.535C302.268 114.304 287.367 109.473 279.772 107.337L278.238 109.645C274.146 115.8 265.674 129.168 264.526 133.398C265.187 133.265 265.906 133.476 266.625 133.89C268.413 134.92 270.197 137.209 271.067 138.579C276.664 131.621 287.82 118.512 287.671 121.741Z" fill="#14253C"/>
<path d="M266.625 133.89C268.413 134.92 270.197 137.209 271.067 138.579C276.664 131.621 287.82 118.512 287.671 121.741C287.521 124.97 302.289 131.46 309.692 134.302L316.408 125.452C314.932 123.917 309.809 119.983 301.117 116.535C302.268 114.304 287.367 109.473 279.772 107.337L278.238 109.645C274.146 115.8 265.674 129.168 264.526 133.398C265.187 133.265 265.906 133.476 266.625 133.89ZM266.625 133.89L279.875 112.814" stroke="black" stroke-width="0.3"/>
</g>
<path id="green_jacket_right" d="M289.357 97.594C288.293 96.4822 291.798 91.7622 293.684 89.5412L294.004 91.134C292.672 90.0764 294.211 100.852 293.176 107.874L284.295 112.424C285.111 108.945 287.266 101.109 289.357 97.594Z" fill="url(#sit_paint1_linear)" stroke="black" stroke-width="0.3"/>
<g id="right_arm">
<path d="M279.192 104.454C279.863 102.82 283.639 100.06 286.391 98.0069C287.671 96.9162 290.235 97.93 290.237 99.7318C290.244 104.729 286.401 105.502 282.271 107.333C281.121 109.564 275.069 111.283 272.187 111.863C271.901 113.753 270.579 117.285 267.58 116.289C264.58 115.293 265.045 112.801 265.652 111.679C266.868 111.101 269.628 110.079 270.936 110.615C273.468 107.306 277.495 105.129 279.192 104.454Z" fill="url(#sit_paint2_linear)"/>
<path d="M279.192 104.454C279.863 102.82 283.639 100.06 286.391 98.0069C287.671 96.9162 290.235 97.93 290.237 99.7318C290.244 104.729 286.401 105.502 282.271 107.333M279.192 104.454C277.495 105.129 273.468 107.306 270.936 110.615C269.628 110.079 266.868 111.101 265.652 111.679C265.045 112.801 264.58 115.293 267.58 116.289C270.579 117.285 271.901 113.753 272.187 111.863C275.069 111.283 281.121 109.564 282.271 107.333M279.192 104.454C279.928 103.973 281.575 103.875 282.271 107.333" stroke="black" stroke-width="0.3"/>
</g>
<g id="fishing_rod_straight">
<path id="line_2" d="M201.66 46.7124C201.66 46.7124 204.833 62.1208 220.033 67.1409C226.101 80.8406 221.597 75.7357 237.009 86.4646C243.871 96.9763 241.395 96.2005 253.299 104.701C251.472 106.437 250.751 106.776 247.463 109.9" stroke="black" stroke-width="0.2"/>
<g id="Group 2">
<path id="Vector 15" d="M202.39 46.018C202.39 46.018 202.737 46.3833 203.103 46.0361C203.468 45.6889 203.121 45.3236 203.121 45.3236C203.121 45.3236 202.774 44.9583 202.408 45.3055C202.043 45.6527 202.39 46.018 202.39 46.018ZM202.39 46.018C202.39 46.018 202.728 46.7395 202.363 47.0867C201.998 47.4339 201.582 47.3621 201.294 47.0595C201.007 46.7569 201.019 46.2784 201.321 45.9908C201.624 45.7032 202.39 46.018 202.39 46.018Z" stroke="#323232" stroke-width="0.2"/>
<path id="Vector 14" d="M222.91 66.1446C222.91 66.1446 221.832 66.4737 221.485 66.1084M221.485 66.1084C221.485 66.1084 221.814 67.1862 221.449 67.5333C221.084 67.8805 220.015 67.8534 219.668 67.4881C219.321 67.1228 219.348 66.0541 219.713 65.7069C220.078 65.3598 221.346 65.7484 221.346 65.7484M221.485 66.1084C221.401 66.0205 221.36 65.8924 221.346 65.7484M221.521 64.6835C221.521 64.6835 221.3 65.2944 221.346 65.7484" stroke="#323232" stroke-width="0.3"/>
<path id="Vector 13" d="M240.981 84.4268C240.616 84.774 239.529 85.4593 238.835 84.7287M238.835 84.7287C238.141 83.9981 238.752 83.3008 239.236 82.9566M238.835 84.7287C238.835 84.7287 239.511 86.1717 239.137 86.8751C238.763 87.5785 237.329 87.8986 236.634 87.168C235.94 86.4375 235.958 85.725 236.332 85.0216C236.707 84.3182 238.835 84.7287 238.835 84.7287Z" stroke="#323232" stroke-width="0.4"/>
<g id="Group 1">
<path id="Vector 11" d="M243.101 85.1936L253.178 95.4305L252.447 96.1248L242.37 85.8879L242.014 85.8788L238.195 81.8608L238.204 81.5045L224.308 67.2495L223.952 67.2405L220.827 63.953L220.836 63.5967L204.171 46.0632L203.815 46.0542L202.079 44.2278L202.088 43.8716L201.047 42.7757C200.37 41.3327 201.427 41.8349 201.777 42.0814C202.127 42.3279 202.819 43.1772 202.819 43.1772L203.175 43.1863L204.911 45.0127L204.902 45.3689L221.566 62.9024L221.923 62.9114L225.047 66.199L225.038 66.5552L238.935 80.8102L239.291 80.8192L243.11 84.8373L243.101 85.1936Z" fill="#323232" stroke="black" stroke-width="0.2"/>
<path id="Vector 12" d="M243.101 85.1935C243.101 85.1935 243.083 85.906 242.37 85.8879M238.935 80.8102C238.935 80.8102 238.222 80.7921 238.204 81.5045M225.038 66.5552C225.038 66.5552 225.02 67.2676 224.308 67.2495M221.567 62.9024C221.567 62.9024 220.854 62.8843 220.836 63.5967M204.902 45.3689C204.902 45.3689 204.884 46.0814 204.171 46.0633M202.819 43.1772C202.819 43.1772 202.106 43.1591 202.088 43.8716" stroke="black" stroke-width="0.2"/>
</g>
</g>
<path id="Vector 10" d="M253.543 95.0833C253.899 95.0923 258.76 100.206 258.751 100.562C258.742 100.919 257.281 102.307 256.924 102.298C256.568 102.289 252.073 96.8282 252.082 96.472C252.091 96.1158 253.187 95.0742 253.543 95.0833Z" fill="#398FC8" stroke="black" stroke-width="0.3"/>
<path id="Vector 9" d="M264.233 109.257L265.622 110.718L267.074 109.685L265.338 107.859L265.356 107.147L263.273 104.955L262.57 104.581C261.641 103.725 259.785 101.943 259.792 101.658C259.8 101.373 259.101 100.809 258.751 100.562L256.925 102.298L257.619 103.029C259.578 104.505 259.818 105.342 259.693 105.577L258.232 106.966C257.501 107.66 257.474 108.729 257.447 109.797C257.14 110.645 255.888 110.352 255.3 110.099L256.031 109.405C256.323 109.127 256.171 108.577 256.058 108.336C255.37 107.368 253.856 105.215 253.308 104.345C253.629 102.928 252.747 103.024 252.266 103.249C251.061 104.01 252.349 104.677 252.943 104.692L253.628 105.779L253.263 106.126L253.601 106.848L252.514 107.533L251.125 106.072L252.221 105.031C251.381 104.439 250.69 104.516 250.449 104.629L247.892 107.059C247.6 107.337 247.984 108.131 248.212 108.493L249.299 107.808L249.984 108.895L249.254 109.589L250.277 111.397L248.888 109.936L248.167 110.274L247.482 109.188L247.107 109.891L251.657 113.215L252.753 112.173L254.461 115.068L255.886 115.105L255.868 115.817C257.279 116.423 257.971 112.544 258.141 110.528L260.671 109.166L261.713 110.262L262.443 109.568L260.013 107.011L259.282 107.705L259.968 108.792C259.605 109.02 258.737 109.545 258.159 109.815C257.925 107.813 259.791 106.411 260.753 105.96L261.1 106.326L261.082 107.038L263.521 109.239L264.233 109.257Z" fill="#323232" stroke="black" stroke-width="0.2"/>
<path id="Vector 8" d="M267.083 109.329C267.439 109.338 281.692 123.602 281.683 123.959C281.674 124.315 280.213 125.703 279.856 125.694C279.5 125.685 265.248 111.421 265.257 111.065C265.266 110.709 266.727 109.32 267.083 109.329Z" fill="#398FC8" stroke="black" stroke-width="0.2"/>
<path id="Vector 7" d="M283.063 125.776C283.07 125.491 282.039 123.968 281.683 123.959C281.327 123.949 279.861 125.505 279.856 125.694C279.852 125.884 281.245 127.156 281.601 127.165C281.958 127.174 283.053 126.132 283.063 125.776Z" fill="#323232" stroke="black" stroke-width="0.2"/>
</g>
<g id="head">
<path d="M295.945 95.0839C296.001 94.4208 295.625 92.9317 293.68 92.2802C292.84 90.363 290.087 90.3957 288.816 90.6516C288.452 90.7248 287.734 90.3479 287.766 88.2551C286.507 87.6387 286.349 86.2205 286.42 85.5306C286.091 85.6903 285.378 85.6325 284.956 85.5612C284.732 85.3889 284.62 84.4553 285.96 82.0993C289.003 82.2157 296.326 81.7617 301.281 79.0149C302.684 80.8514 301.352 81.5055 300.511 81.6031C300.266 81.8066 300.377 82.6464 302.791 84.378C304.785 86.329 306.207 91.2017 295.945 95.0839Z" fill="url(#sit_paint3_radial)"/>
<path d="M295.945 95.0839C296.001 94.4208 295.625 92.9317 293.68 92.2802C292.84 90.363 290.087 90.3957 288.816 90.6516C288.452 90.7248 287.734 90.3479 287.766 88.2551C285.879 87.3311 286.465 84.6055 286.591 85.2321C286.692 85.7333 285.543 85.6603 284.956 85.5612C284.732 85.3889 284.62 84.4553 285.96 82.0993C289.003 82.2157 296.326 81.7617 301.281 79.0149C302.684 80.8514 301.352 81.5055 300.511 81.6031C300.266 81.8066 300.377 82.6464 302.791 84.378C304.785 86.329 306.207 91.2017 295.945 95.0839Z" stroke="black" stroke-width="0.3"/>
</g>
<path id="hair" d="M301.482 79.1995C302.324 81.4792 301.819 81.9055 300.682 82.1344C299.328 82.3134 296.076 82.2821 293.908 80.7244L293.284 77.6259L301.482 79.1995Z" fill="#2E312B" stroke="black" stroke-width="0.3"/>
<g id="hat">
<path d="M306.741 79.9151C306.285 80.0067 304.692 80.0954 301.963 79.7166C296.51 82.7526 288.444 83.2457 285.093 83.1127C279.714 85.0738 284.046 81.6547 285.073 78.1884C285.583 76.4651 284.232 75.355 285.191 74.0697C288.582 69.5244 296.453 67.6998 301.425 72.3372C302.371 73.2196 302.556 75.629 303.315 77.0216C305.374 77.8356 306.457 79.2897 306.741 79.9151Z" fill="url(#sit_paint4_linear)"/>
<path d="M303.315 77.0216C305.374 77.8356 306.457 79.2897 306.741 79.9151C306.285 80.0067 304.692 80.0954 301.963 79.7166C296.51 82.7526 288.444 83.2457 285.093 83.1127C279.714 85.0738 284.046 81.6547 285.073 78.1884M303.315 77.0216C302.556 75.629 302.371 73.2196 301.425 72.3372C296.453 67.6998 288.582 69.5244 285.191 74.0697C284.232 75.355 285.583 76.4651 285.073 78.1884M303.315 77.0216C290.93 79.515 285.993 78.8384 285.073 78.1884" stroke="black" stroke-width="0.3"/>
</g>
<g id="left_leg">
<path d="M296.591 108.949C306.317 110.152 314.25 116.39 317.075 121.319C319.804 125.768 323.588 134.803 316.901 135.349C308.541 136.033 303.151 129.121 294.782 122.308C292.674 126.732 289.795 129.81 274.826 147.319C273.627 147.341 272.553 147.009 271.61 146.467C269.107 145.027 267.521 142.107 266.937 140.41C274.133 131.464 287.365 107.807 296.591 108.949Z" fill="url(#sit_paint5_linear)"/>
<path d="M271.61 146.467C269.107 145.027 267.521 142.107 266.937 140.41C274.133 131.464 287.365 107.807 296.591 108.949C306.317 110.152 314.25 116.39 317.075 121.319C319.804 125.768 323.588 134.803 316.901 135.349C308.541 136.033 303.151 129.121 294.782 122.308C292.674 126.732 289.795 129.81 274.826 147.319C273.627 147.341 272.553 147.009 271.61 146.467ZM271.61 146.467C277.985 135.02 291.906 111.991 292.751 112.221C293.809 112.508 312.523 119.237 316.505 125.933" stroke="black" stroke-width="0.3"/>
</g>
<path id="redshirt_2" d="M284.64 99.2409C284.197 97.0371 289.332 92.7546 291.956 90.8888L292.732 94.7455C291.978 97.3816 290.402 102.323 290.136 101.001C289.803 99.3482 287.95 99.7212 284.64 99.2409Z" fill="url(#sit_paint6_linear)" stroke="black" stroke-width="0.3"/>
<g id="green_jacket_left">
<g id="green_outer_1">
<path id="Vector 2" d="M311.076 89.0387C310.073 86.0418 304.376 84.7229 301.653 84.4381C296.66 87.4426 293.593 94.0578 292.932 103.188L306.476 98.4619C305.932 99.0712 304.614 100.636 303.694 102.021C302.85 103.79 299.888 107.119 298.513 108.562L302.936 110.671C308.126 111.625 310.824 117.579 312.655 121.709C311.043 123.633 312.568 128.724 313.532 131.029C313.533 131.862 313.748 134.585 314.599 138.812C321.037 138.515 324.973 135.724 325.26 134.666C325.547 133.609 323.046 131.113 322.756 129.672C322.465 128.231 325.154 126.69 328.227 124.572C327.989 119.422 326.451 114.1 325.712 112.083C319.926 95.7542 312.33 92.7848 311.076 89.0387Z" fill="url(#sit_paint7_linear)" stroke="black" stroke-width="0.3"/>
<path id="Vector 3" d="M301.653 84.4381C305.693 87.1236 313.12 93.7256 310.512 98.649C309.973 99.4599 308.924 100.179 307.929 100.714M306.095 101.537C306.546 101.378 307.224 101.092 307.929 100.714M307.929 100.714C309.049 102.139 311.328 105.682 311.485 108.45C313.796 111.983 321.561 122.082 325.154 126.69" stroke="black" stroke-width="0.3"/>
</g>
<g id="pocket">
<g id="Vector 4">
<path d="M303.603 106.538L308.503 106.051L309.371 107.876L308.875 107.898C309.344 110.226 308.803 114.987 308.033 113.643C307.416 112.568 304.698 111.149 303.416 110.574L303.923 108.126L302.933 108.172L303.603 106.538Z" fill="url(#sit_paint8_linear)"/>
<path d="M303.923 108.126L302.933 108.172L303.603 106.538L308.503 106.051L309.371 107.876L308.875 107.898M303.923 108.126L303.416 110.574C304.698 111.149 307.416 112.568 308.033 113.643C308.803 114.987 309.344 110.226 308.875 107.898M303.923 108.126L308.875 107.898" stroke="black" stroke-width="0.3"/>
</g>
<path id="Vector 5" d="M305.431 108.169L305.241 109.707" stroke="black" stroke-width="0.2"/>
<path id="Vector 6" d="M306.392 107.975L306.298 109.994" stroke="black" stroke-width="0.2"/>
</g>
</g>
<path id="left_arm" d="M295.424 98.1876C298.883 97.4914 302.637 102.567 303.12 104.136C301.297 106.669 297.364 111.792 296.211 112.024C294.77 112.315 288.912 115.493 274.211 116.953C270.465 118.207 267.106 121.383 265.855 120.135C264.604 118.887 263.06 113.7 265.845 112.639C266.902 112.094 269.88 111.327 273.341 112.63C277.184 111.856 287.555 106.27 289.67 106.844C291.258 103.975 294.633 98.2278 295.424 98.1876Z" fill="url(#sit_paint9_linear)" stroke="black" stroke-width="0.3"/>
<path id="redshirt_1" d="M293.973 98.3994C295.974 93.1557 299.445 90.5677 301.66 89.435C305.215 89.7188 307.234 89.8123 308.491 96.057L302.848 106.145C298.572 101.034 298.605 101.523 293.973 98.3994Z" fill="url(#sit_paint10_linear)" stroke="black" stroke-width="0.3"/>
</g>
</g>
<defs>
<linearGradient id="sit_paint0_linear" x1="294.021" y1="89.9732" x2="297.115" y2="105.345" gradientUnits="userSpaceOnUse">
<stop stop-color="#CD3F1E"/>
<stop offset="1" stop-color="#AF2D14"/>
</linearGradient>
<linearGradient id="sit_paint1_linear" x1="287.463" y1="90.7935" x2="291.525" y2="110.969" gradientUnits="userSpaceOnUse">
<stop stop-color="#7D936D"/>
<stop offset="1" stop-color="#67764A"/>
</linearGradient>
<linearGradient id="sit_paint2_linear" x1="276.342" y1="99.7967" x2="279.275" y2="114.363" gradientUnits="userSpaceOnUse">
<stop stop-color="#9F714B"/>
<stop offset="0.604167" stop-color="#E38D51"/>
</linearGradient>
<radialGradient id="sit_paint3_radial" cx="0" cy="0" r="1" gradientUnits="userSpaceOnUse" gradientTransform="translate(294.472 86.0087) rotate(78.6174) scale(9.18738 11.6373)">
<stop offset="0.354167" stop-color="#E38D51"/>
<stop offset="0.885417" stop-color="#AF6823"/>
<stop offset="1" stop-color="#826548"/>
</radialGradient>
<linearGradient id="sit_paint4_linear" x1="283.116" y1="77.8805" x2="302.248" y2="76.226" gradientUnits="userSpaceOnUse">
<stop stop-color="#7D936D"/>
<stop offset="0.520833" stop-color="#7D936D"/>
<stop offset="0.834702" stop-color="#5D7050"/>
</linearGradient>
<linearGradient id="sit_paint5_linear" x1="288.729" y1="110.241" x2="295.361" y2="143.185" gradientUnits="userSpaceOnUse">
<stop stop-color="#2D466A"/>
<stop offset="1" stop-color="#101F34"/>
</linearGradient>
<linearGradient id="sit_paint6_linear" x1="287.633" y1="91.7591" x2="289.567" y2="101.366" gradientUnits="userSpaceOnUse">
<stop stop-color="#AF2D14"/>
<stop offset="1" stop-color="#CD3E1E"/>
</linearGradient>
<linearGradient id="sit_paint7_linear" x1="302.259" y1="107.308" x2="322.434" y2="103.246" gradientUnits="userSpaceOnUse">
<stop stop-color="#7D936D"/>
<stop offset="0.505208" stop-color="#748965"/>
<stop offset="1" stop-color="#5D7050"/>
</linearGradient>
<linearGradient id="sit_paint8_linear" x1="305.765" y1="106.102" x2="307.368" y2="114.068" gradientUnits="userSpaceOnUse">
<stop stop-color="#7C926C"/>
<stop offset="1" stop-color="#606D3F"/>
</linearGradient>
<linearGradient id="sit_paint9_linear" x1="281.494" y1="100.992" x2="296.791" y2="114.907" gradientUnits="userSpaceOnUse">
<stop offset="0.515625" stop-color="#E38D51"/>
<stop offset="1" stop-color="#AF6823"/>
</linearGradient>
<linearGradient id="sit_paint10_linear" x1="301.819" y1="90.9906" x2="317.348" y2="102.705" gradientUnits="userSpaceOnUse">
<stop stop-color="#AF2D14"/>
<stop offset="0.505208" stop-color="#DB4723"/>
<stop offset="1" stop-color="#DB4723"/>
</linearGradient>
</defs>
</svg>
