<svg width="364" height="470" viewBox="0 0 364 470" fill="none" xmlns="http://www.w3.org/2000/svg" id="man_stand">
<g id="man_standing">
<g id="man">
<g id="head">
<path d="M264.395 98.9857C264.603 98.4762 264.674 97.2086 263.3 96.2138C263.112 94.4937 260.932 93.8391 259.865 93.7268C259.561 93.6948 259.087 93.2198 259.63 91.5767C258.789 90.7792 259.014 89.6211 259.241 89.0944C258.941 89.139 258.393 88.9172 258.078 88.7567C257.944 88.5655 258.086 87.8011 259.726 86.2734C262.098 87.1171 267.988 88.5689 272.576 87.6262C273.229 89.4218 272.017 89.6089 271.329 89.478C271.085 89.5778 270.966 90.268 272.442 92.2308C273.533 94.2629 273.451 98.4589 264.395 98.9857Z" fill="url(#paint0_radial)"/>
<path d="M264.395 98.9857C264.603 98.4762 264.674 97.2086 263.3 96.2138C263.112 94.4937 260.932 93.8391 259.865 93.7268C259.561 93.6948 259.087 93.2198 259.63 91.5767C258.369 90.3813 259.504 88.3755 259.449 88.901C259.405 89.3214 258.517 88.9799 258.078 88.7567C257.944 88.5655 258.086 87.8011 259.726 86.2734C262.098 87.1171 267.988 88.5689 272.576 87.6262C273.229 89.4218 272.017 89.6089 271.329 89.478C271.085 89.5778 270.966 90.268 272.442 92.2308C273.533 94.2629 273.451 98.4589 264.395 98.9857Z" stroke="black" stroke-width="0.3"/>
</g>
<path id="hair" d="M272.689 87.8216C272.79 89.8282 272.287 90.0398 271.333 89.9394C270.22 89.7459 267.662 88.9176 266.336 87.1528L266.61 84.554L272.689 87.8216Z" fill="#2E312B" stroke="black" stroke-width="0.3"/>
<g id="hat">
<path d="M276.661 89.6856C276.279 89.6454 275 89.3217 272.941 88.3483C267.888 89.396 261.403 87.7919 258.792 86.8589C254.063 87.0767 258.326 85.4497 259.992 82.9685C260.821 81.7349 260.029 80.5253 261.103 79.7482C264.902 76.9998 271.563 77.5055 274.34 82.393C274.868 83.3231 274.419 85.2698 274.674 86.5562C276.097 87.7073 276.592 89.1221 276.661 89.6856Z" fill="url(#stand_paint1_linear)"/>
<path d="M274.674 86.5562C276.097 87.7073 276.592 89.1221 276.661 89.6856C276.279 89.6454 275 89.3217 272.941 88.3483C267.888 89.396 261.403 87.7919 258.792 86.8589C254.063 87.0767 258.326 85.4497 259.992 82.9685M274.674 86.5562C274.419 85.2698 274.868 83.3231 274.34 82.393C271.563 77.5055 264.902 76.9998 261.103 79.7482C260.029 80.5253 260.821 81.7349 259.992 82.9685M274.674 86.5562C264.286 85.4628 260.558 83.7088 259.992 82.9685" stroke="black" stroke-width="0.3"/>
</g>
<g id="right_leg">
<path d="M263.986 140.979C264.642 136.087 263.811 132.734 264.94 128.595C261.385 126.948 257.222 128.168 254.718 129.407C254.188 129.669 253.732 129.932 253.373 130.169C253.339 131.82 253.797 136.412 255.903 141.565C259.777 148.406 266.128 157.161 273.664 162.496C274.273 162.222 276.049 161.477 278.277 160.684C273.778 153.194 267.951 142.903 263.986 140.979Z" fill="url(#stand_paint2_linear)"/>
<path d="M254.718 129.407C254.188 129.669 253.732 129.932 253.373 130.169C253.339 131.82 253.797 136.412 255.903 141.565C259.777 148.406 266.128 157.161 273.664 162.496C274.273 162.222 276.049 161.477 278.277 160.684C273.778 153.194 267.951 142.903 263.986 140.979C264.642 136.087 263.811 132.734 264.94 128.595C261.385 126.948 257.222 128.168 254.718 129.407ZM254.718 129.407C254.999 132.822 256.012 139.966 257.817 141.223C259.201 143.444 261.374 152.218 273.78 160.862" stroke="black" stroke-width="0.3"/>
</g>
<g id="left_leg">
<path d="M260.72 129.843C259.012 134.098 258.704 135.14 254.655 137.345C252.975 141.2 248.774 146.789 246.883 149.102C250.411 155.58 254.097 169.205 255.5 175.208L249.924 174.395L247.896 174.099C243.515 166.16 235.121 149.032 236.596 144.029C238.44 137.775 239.499 132.649 247.135 122.891C248.128 122.662 249.515 122.541 251.052 122.71C254.404 123.079 258.469 124.829 260.72 129.843Z" fill="url(#stand_paint3_linear)"/>
<path d="M251.052 122.71C249.515 122.541 248.128 122.662 247.135 122.891C239.499 132.649 238.44 137.775 236.596 144.029C235.121 149.032 243.515 166.16 247.896 174.099L249.924 174.395M251.052 122.71C254.404 123.079 258.469 124.829 260.72 129.843C259.012 134.098 258.704 135.14 254.655 137.345C252.975 141.2 248.774 146.789 246.883 149.102C250.411 155.58 254.097 169.205 255.5 175.208L249.924 174.395M251.052 122.71C248.226 127.156 241.926 137.942 239.33 145.515C239.036 155.441 247.576 169.548 249.924 174.395" stroke="black" stroke-width="0.3"/>
</g>
<g id="fishing_rod_bent">
<path id="line_2" d="M178.232 65.2825C178.232 65.2825 180.669 70.3553 190.974 66.3711C200.327 74.1857 198.738 73.8577 210.781 74.4591C216.794 89.7805 213.364 87.0081 228.966 93.0615C226.159 94.8042 227.593 94.3137 222.541 97.4506" stroke="black" stroke-width="0.2"/>
<g id="Group 2">
<path id="Vector 15" d="M177.905 63.8659C177.905 63.8659 178.544 63.6988 178.377 63.0595C178.21 62.4203 177.571 62.5874 177.571 62.5874C177.571 62.5874 176.932 62.7546 177.099 63.3938C177.266 64.0331 177.905 63.8659 177.905 63.8659ZM177.905 63.8659C177.905 63.8659 178.948 63.9348 179.115 64.5741C179.282 65.2133 178.936 65.6452 178.407 65.7837C177.877 65.9222 177.336 65.6051 177.197 65.0756C177.059 64.546 177.905 63.8659 177.905 63.8659Z" stroke="#323232" stroke-width="0.2"/>
<path id="Vector 14" d="M193.213 62.9417C193.213 62.9417 192.491 64.2307 191.831 64.1996M191.831 64.1996C191.831 64.1996 193.12 64.9218 193.089 65.5818C193.058 66.2418 192.021 67.1852 191.361 67.1541C190.701 67.1231 189.758 66.0865 189.789 65.4264C189.82 64.7664 191.372 63.985 191.372 63.985M191.831 64.1996C191.672 64.1921 191.517 64.1082 191.372 63.985M190.573 62.8175C190.573 62.8175 190.918 63.5964 191.372 63.985" stroke="#323232" stroke-width="0.3"/>
<path id="Vector 13" d="M215.346 70.4884C214.979 71.0377 213.786 72.2272 212.688 71.4927M212.688 71.4927C211.589 70.7581 212.171 69.6899 212.691 69.1103M212.688 71.4927C212.688 71.4927 213.968 73.1438 213.692 74.1513C213.416 75.1588 211.674 75.9811 210.575 75.2466C209.476 74.512 209.295 73.5955 209.571 72.5879C209.847 71.5804 212.688 71.4927 212.688 71.4927Z" stroke="#323232" stroke-width="0.4"/>
<g id="Group 1">
<g id="Vector">
<path d="M217.432 72.5371C223.342 77.025 223.489 77.2855 228.885 83.5877L227.762 84.2847C223.264 78.8319 222.927 78.6628 216.31 73.2342L215.855 73.1278C213.994 70.8869 213.224 70.2355 210.474 69.0693L209.996 68.3831C204.567 65.5385 200.884 64.7939 194.252 63.9365L193.765 64.0234C192.705 63.7109 190.776 63.5572 188.875 63.3915L188.788 62.905C185.011 62.5814 184.331 63.2992 179.77 63.0109C179.724 63.0749 179.564 63.1232 179.284 63.0979C179.093 62.7615 176.691 63.5148 175.645 64.1563L175.215 63.8564C174.374 64.0253 172.614 64.6668 171.728 65.3273C169.869 66.1616 170.668 65.0147 171.641 64.8407C172.527 64.1803 174.792 62.938 175.128 63.3699L175.433 62.9706C175.476 62.7369 178.004 61.8157 180.116 62.1334L180.198 62.5951C183.451 62.4931 184.753 61.7404 189.674 62.2446L190.161 62.1576C190.647 62.0706 194.477 62.39 195.287 62.7474L195.374 63.2394C201.898 63.8844 205.61 64.6494 211.118 67.6861L211.573 67.7925C215.1 69.0796 216.246 70.0705 217.539 72.0822L217.432 72.5371Z" fill="#323232"/>
<path d="M217.432 72.5371C223.342 77.025 223.489 77.2855 228.885 83.5877L227.762 84.2847C223.264 78.8319 222.927 78.6628 216.31 73.2342M217.432 72.5371L217.539 72.0822C216.246 70.0705 215.1 69.0796 211.573 67.7925L211.118 67.6861M217.432 72.5371C217.432 72.5371 217.22 73.447 216.31 73.2342M211.118 67.6861C205.61 64.6494 201.898 63.8844 195.374 63.2394M211.118 67.6861C211.118 67.6861 210.209 67.4732 209.996 68.3831M195.374 63.2394L195.287 62.7474C194.477 62.39 190.647 62.0706 190.161 62.1576L189.674 62.2446M195.374 63.2394C195.374 63.2394 195.162 64.1493 194.252 63.9365M189.674 62.2446C184.753 61.7404 183.451 62.4931 180.198 62.5951M189.674 62.2446C189.674 62.2446 189.001 61.9951 188.788 62.905M180.198 62.5951L180.116 62.1334C178.004 61.8157 175.476 62.7369 175.433 62.9706L175.128 63.3699M180.198 62.5951C180.198 62.5951 180.401 63.0457 179.77 63.0109M175.128 63.3699C174.792 62.938 172.527 64.1803 171.641 64.8407C170.668 65.0147 169.869 66.1616 171.728 65.3273C172.614 64.6668 174.374 64.0253 175.215 63.8564M175.128 63.3699L175.215 63.8564M175.215 63.8564L175.645 64.1563C176.691 63.5148 179.093 62.7615 179.284 63.0979C179.564 63.1232 179.724 63.0749 179.77 63.0109M179.77 63.0109C184.331 63.2992 185.011 62.5814 188.788 62.905M188.788 62.905L188.875 63.3915C190.776 63.5572 192.705 63.7109 193.765 64.0234L194.252 63.9365M194.252 63.9365C200.884 64.7939 204.567 65.5385 209.996 68.3831M209.996 68.3831L210.474 69.0693C213.224 70.2355 213.994 70.8869 215.855 73.1278L216.31 73.2342" stroke="black" stroke-width="0.2"/>
</g>
</g>
<path id="spinner" d="M231.599 99.5026L231.206 100.067L235.974 104.645L236.367 104.081L231.599 99.5026Z" fill="#323232" stroke="black" stroke-width="0.3"/>
<g id="right_arm">
<path d="M248.689 110.067C250.347 109.5 256.565 108.183 259.895 108.896C261.545 109.139 262.463 111.714 261.12 112.893C257.395 116.162 252.615 116.131 248.551 114.245C246.135 114.844 241.114 109.65 240.275 107.346C238.678 108.367 235.179 109.687 233.962 106.798C232.746 103.91 234.91 102.628 236.144 102.348C237.37 102.879 239.936 104.271 240.389 105.597C244.229 106.639 247.077 109.241 248.689 110.067Z" fill="url(#stand_paint4_linear)"/>
<path d="M248.689 110.067C250.347 109.5 256.565 108.183 259.895 108.896C261.545 109.139 262.463 111.714 261.12 112.893C257.395 116.162 252.615 116.131 248.551 114.245M248.689 110.067C247.077 109.241 244.229 106.639 240.389 105.597C239.936 104.271 237.37 102.879 236.144 102.348C234.91 102.628 232.746 103.91 233.962 106.798C235.179 109.687 238.678 108.367 240.275 107.346C241.114 109.65 246.135 114.844 248.551 114.245M248.689 110.067C249.529 110.302 250.678 111.466 248.551 114.245" stroke="black" stroke-width="0.3"/>
</g>
<g id="green_jacket">
<path d="M273.562 93.9759C275.037 94.8642 277.592 98.2912 276.007 104.894C271.675 111.592 269.853 118.336 269.483 120.871C269.013 122.466 267.737 127.976 264.624 131.63C264.347 131.955 264.072 132.264 263.801 132.554C261.473 132.636 257.745 129.037 253.221 126.557C251.071 125.379 248.271 124.47 244.435 124.361C244.598 123.675 244.781 122.983 244.98 122.289C247.54 113.377 252.892 103.992 255.417 100.182C263.532 90.3384 264.267 91.6881 266.573 90.7821C267.718 90.742 270.718 91.3246 273.562 93.9759Z" fill="url(#stand_paint5_linear)"/>
<path d="M253.221 126.557C257.745 129.037 261.473 132.636 263.801 132.554C264.072 132.264 264.347 131.955 264.624 131.63M253.221 126.557C251.071 125.379 248.271 124.47 244.435 124.361C244.598 123.675 244.781 122.983 244.98 122.289M253.221 126.557C256.021 119.206 262.447 104.158 265.755 102.777M244.98 122.289C247.54 113.377 252.892 103.992 255.417 100.182C263.532 90.3384 264.267 91.6881 266.573 90.7821C267.718 90.742 270.718 91.3246 273.562 93.9759C275.037 94.8642 277.592 98.2912 276.007 104.894C271.675 111.592 269.853 118.336 269.483 120.871C269.013 122.466 267.737 127.976 264.624 131.63M244.98 122.289C249.834 121.421 263.51 128.163 264.624 131.63" stroke="black" stroke-width="0.3"/>
</g>
<path id="Vector 9" d="M239.096 98.9761L240.287 100.611L241.867 99.7734L240.378 97.7292L240.489 97.0226L238.702 94.5695L238.05 94.1052C237.238 93.1328 235.623 91.1172 235.668 90.8345C235.712 90.5519 235.091 89.8991 234.774 89.608L232.73 91.0973L233.326 91.9149C235.082 93.6391 235.212 94.5042 235.057 94.7213L233.422 95.9127C232.604 96.5083 232.438 97.5684 232.271 98.6284C231.855 99.432 230.648 98.9768 230.096 98.6488L230.913 98.0531C231.24 97.8148 231.161 97.2471 231.08 96.993C230.521 95.9398 229.296 93.5992 228.864 92.6623C229.368 91.2934 228.478 91.2743 227.97 91.4358C226.671 92.0351 227.866 92.8677 228.455 92.9602L228.995 94.1312L228.586 94.429L228.829 95.1912L227.657 95.7314L226.466 94.0961L227.693 93.2025C226.933 92.504 226.235 92.4909 225.981 92.5717L223.12 94.6566C222.793 94.8949 223.071 95.7352 223.251 96.1255L224.422 95.5853L224.962 96.7563L224.144 97.352L224.927 99.2852L223.736 97.6498L222.973 97.8922L222.433 96.7212L221.969 97.3724L226.063 101.274L227.289 100.38L228.612 103.485L230.026 103.707L229.915 104.413C231.239 105.201 232.435 101.43 232.867 99.4461L235.562 98.4212L236.456 99.6477L237.274 99.052L235.189 96.1901L234.371 96.7858L234.911 97.9568C234.521 98.1369 233.588 98.5455 232.978 98.7394C233.006 96.7163 235.046 95.5642 236.062 95.2411L236.36 95.6499L236.249 96.3566L238.389 98.8651L239.096 98.9761Z" fill="#323232" stroke="black" stroke-width="0.2"/>
</g>
<path id="Vector 10" d="M229.572 83.2266C230.027 83.333 235.54 89.5387 235.433 89.9937C235.327 90.4486 233.082 91.8428 232.627 91.7364C232.172 91.63 227.22 85.0757 227.326 84.6208C227.433 84.1658 229.117 83.1202 229.572 83.2266Z" fill="#398FC8" stroke="black" stroke-width="0.3"/>
<path id="Vector 8" d="M241.956 98.7749C246.547 105.391 247.112 108.553 247.074 116.456C246.968 116.911 246.165 117.859 244.267 118.198C245.056 104.352 239.043 100.973 239.149 100.518C239.255 100.063 241.501 98.6685 241.956 98.7749Z" fill="#398FC8" stroke="black" stroke-width="0.2"/>
<path id="Vector 7" d="M247.002 119.176C247.266 118.912 247.665 116.533 247.335 116.203C247.005 115.872 244.207 116.024 244.031 116.2C243.856 116.375 244.029 118.843 244.359 119.173C244.689 119.504 246.671 119.506 247.002 119.176Z" fill="#323232" stroke="black" stroke-width="0.2"/>
</g>
<g id="left_arm">
<path d="M260.451 95.7293C263.878 96.4353 265.336 102.525 265.168 104.144C262.522 105.749 256.944 108.9 255.801 108.665C254.373 108.371 246.838 107.421 241.657 101.01C237.751 100.702 233.453 102.297 232.795 100.673C232.138 99.049 232.74 93.715 235.694 93.8274C236.87 93.7388 239.47 95.0896 242.124 97.6211C245.526 98.1712 253.665 100.083 254.322 101.324C256.453 98.9406 259.776 95.482 260.451 95.7293Z" fill="url(#stand_paint6_linear)"/>
<path d="M260.451 95.7293C263.878 96.4353 265.336 102.525 265.168 104.144C262.522 105.749 256.944 108.9 255.801 108.665C254.373 108.371 246.838 107.421 241.657 101.01C237.751 100.702 233.453 102.297 232.795 100.673C232.138 99.049 232.74 93.715 235.694 93.8274C236.87 93.7388 239.47 95.0896 242.124 97.6211C246.191 98.2785 257.024 100.882 253.76 101.959C255.81 99.6177 259.713 95.4589 260.451 95.7293Z" stroke="black" stroke-width="0.3"/>
</g>
<path id="redshirt_1" d="M259.044 95.3595C262.905 91.3492 267.076 90.3331 269.538 90.1583C272.674 91.7967 274.48 92.6649 273.205 98.8528L264.141 105.873C262.22 99.5482 262.061 100.007 259.044 95.3595Z" fill="url(#stand_paint7_linear)" stroke="black" stroke-width="0.3"/>
</g>
<g id="line_1">
<path id="line_1_2" d="M58.4661 451.684L178.266 65.8985" stroke="black" stroke-width="0.2"/>
<g id="needle">
<path id="Vector 16" d="M56.6984 457.518L55.1386 462.495M54.7132 463.852L55.1386 462.495M55.1386 462.495C54.3969 462.628 53.2988 462.083 54.8406 458.839" stroke="#323232" stroke-width="0.3"/>
<path id="Vector 17" d="M55.2038 462.497C55.2038 462.497 56.5247 464.354 57.552 459.82" stroke="#323232" stroke-width="0.3"/>
<ellipse id="Ellipse 2" rx="1.8236" ry="4.10309" transform="matrix(-0.963988 -0.265946 -0.265946 0.963988 57.6698 454.212)" fill="#323232"/>
</g>
</g>
</g>
<defs>
<radialGradient id="paint0_radial" cx="0" cy="0" r="1" gradientUnits="userSpaceOnUse" gradientTransform="translate(265.476 91.4615) rotate(96.0093) scale(7.59599 9.62159)">
<stop offset="0.354167" stop-color="#E38D51"/>
<stop offset="0.885417" stop-color="#AF6823"/>
<stop offset="1" stop-color="#826548"/>
</radialGradient>
<linearGradient id="stand_paint1_linear" x1="258.524" y1="82.2419" x2="274.029" y2="85.6648" gradientUnits="userSpaceOnUse">
<stop stop-color="#7D936D"/>
<stop offset="0.520833" stop-color="#7D936D"/>
<stop offset="0.834702" stop-color="#5D7050"/>
</linearGradient>
<linearGradient id="stand_paint2_linear" x1="264.495" y1="127.005" x2="254.896" y2="144.214" gradientUnits="userSpaceOnUse">
<stop stop-color="#2C4569"/>
<stop offset="1" stop-color="#14253C"/>
</linearGradient>
<linearGradient id="stand_paint3_linear" x1="233.552" y1="129.762" x2="261.422" y2="142.059" gradientUnits="userSpaceOnUse">
<stop offset="0.370132" stop-color="#294063"/>
<stop offset="1" stop-color="#14253C"/>
</linearGradient>
<linearGradient id="stand_paint4_linear" x1="251.995" y1="102.565" x2="243.04" y2="114.269" gradientUnits="userSpaceOnUse">
<stop stop-color="#9F714B"/>
<stop offset="0.604167" stop-color="#E38D51"/>
</linearGradient>
<linearGradient id="stand_paint5_linear" x1="253.025" y1="100.609" x2="272.968" y2="118.273" gradientUnits="userSpaceOnUse">
<stop stop-color="#7D936D"/>
<stop offset="0.692107" stop-color="#697D5B"/>
<stop offset="0.989583" stop-color="#5D7050"/>
</linearGradient>
<linearGradient id="stand_paint6_linear" x1="246.647" y1="92.8857" x2="255.213" y2="111.521" gradientUnits="userSpaceOnUse">
<stop offset="0.515625" stop-color="#E38D51"/>
<stop offset="1" stop-color="#AF6823"/>
</linearGradient>
<linearGradient id="stand_paint7_linear" x1="269.08" y1="91.64" x2="278.711" y2="108.357" gradientUnits="userSpaceOnUse">
<stop stop-color="#AF2D14"/>
<stop offset="0.505208" stop-color="#DB4723"/>
<stop offset="1" stop-color="#DB4723"/>
</linearGradient>
</defs>
</svg>
